<svg width="311" height="116" viewBox="0 0 311 116" fill="none" xmlns="http://www.w3.org/2000/svg">
<path d="M1.672 57.24C1.672 56.8293 1.74933 56.4427 1.904 56.08C2.064 55.7173 2.27733 55.4027 2.544 55.136C2.81067 54.864 3.12267 54.6507 3.48 54.496C3.84267 54.336 4.22667 54.256 4.632 54.256C5.04267 54.256 5.42667 54.336 5.784 54.496C6.14667 54.6507 6.46133 54.864 6.728 55.136C7 55.4027 7.21333 55.7173 7.368 56.08C7.528 56.4427 7.608 56.8293 7.608 57.24C7.608 57.6507 7.528 58.0373 7.368 58.4C7.21333 58.7573 7 59.0693 6.728 59.336C6.46133 59.6027 6.14667 59.816 5.784 59.976C5.42667 60.1307 5.04267 60.208 4.632 60.208C4.22667 60.208 3.84267 60.1307 3.48 59.976C3.12267 59.816 2.81067 59.6027 2.544 59.336C2.27733 59.0693 2.064 58.7573 1.904 58.4C1.74933 58.0373 1.672 57.6507 1.672 57.24ZM22.1066 51.84H18.3946V62H16.8506V51.84H13.1306V50.536H22.1066V51.84ZM24.7631 54.976C25.1098 54.608 25.4938 54.3147 25.9151 54.096C26.3365 53.8773 26.8218 53.768 27.3711 53.768C27.8138 53.768 28.2031 53.8427 28.5391 53.992C28.8805 54.136 29.1631 54.344 29.3871 54.616C29.6165 54.8827 29.7898 55.2053 29.9071 55.584C30.0245 55.9627 30.0831 56.3813 30.0831 56.84V62H28.6511V56.84C28.6511 56.2267 28.5098 55.752 28.2271 55.416C27.9498 55.0747 27.5258 54.904 26.9551 54.904C26.5338 54.904 26.1391 55.0053 25.7711 55.208C25.4085 55.4107 25.0725 55.6853 24.7631 56.032V62H23.3311V50.216H24.7631V54.976ZM37.677 57.064C37.677 56.7333 37.629 56.432 37.533 56.16C37.4423 55.8827 37.3063 55.6453 37.125 55.448C36.949 55.2453 36.733 55.0907 36.477 54.984C36.221 54.872 35.9303 54.816 35.605 54.816C34.9223 54.816 34.381 55.016 33.981 55.416C33.5863 55.8107 33.341 56.36 33.245 57.064H37.677ZM38.829 60.864C38.653 61.0773 38.4423 61.264 38.197 61.424C37.9517 61.5787 37.6877 61.7067 37.405 61.808C37.1277 61.9093 36.8397 61.984 36.541 62.032C36.2423 62.0853 35.9463 62.112 35.653 62.112C35.093 62.112 34.5757 62.0187 34.101 61.832C33.6317 61.64 33.2237 61.3627 32.877 61C32.5357 60.632 32.269 60.1787 32.077 59.64C31.885 59.1013 31.789 58.4827 31.789 57.784C31.789 57.2187 31.8743 56.6907 32.045 56.2C32.221 55.7093 32.4717 55.2853 32.797 54.928C33.1223 54.5653 33.5197 54.2827 33.989 54.08C34.4583 53.872 34.9863 53.768 35.573 53.768C36.0583 53.768 36.5063 53.8507 36.917 54.016C37.333 54.176 37.6903 54.4107 37.989 54.72C38.293 55.024 38.5303 55.4027 38.701 55.856C38.8717 56.304 38.957 56.816 38.957 57.392C38.957 57.616 38.933 57.7653 38.885 57.84C38.837 57.9147 38.7463 57.952 38.613 57.952H33.197C33.213 58.464 33.2823 58.9093 33.405 59.288C33.533 59.6667 33.709 59.984 33.933 60.24C34.157 60.4907 34.4237 60.68 34.733 60.808C35.0423 60.9307 35.389 60.992 35.773 60.992C36.1303 60.992 36.437 60.952 36.693 60.872C36.9543 60.7867 37.1783 60.696 37.365 60.6C37.5517 60.504 37.7063 60.416 37.829 60.336C37.957 60.2507 38.0663 60.208 38.157 60.208C38.2743 60.208 38.365 60.2533 38.429 60.344L38.829 60.864ZM54.4479 56.488V60.888C53.8719 61.304 53.2559 61.616 52.5999 61.824C51.9492 62.0267 51.2345 62.128 50.4559 62.128C49.5332 62.128 48.7012 61.9867 47.9599 61.704C47.2185 61.416 46.5839 61.016 46.0559 60.504C45.5332 59.9867 45.1305 59.368 44.8479 58.648C44.5652 57.928 44.4239 57.136 44.4239 56.272C44.4239 55.3973 44.5599 54.6 44.8319 53.88C45.1092 53.16 45.5012 52.544 46.0079 52.032C46.5145 51.5147 47.1305 51.1147 47.8559 50.832C48.5812 50.5493 49.3919 50.408 50.2879 50.408C50.7412 50.408 51.1625 50.4427 51.5519 50.512C51.9412 50.576 52.3012 50.672 52.6319 50.8C52.9625 50.9227 53.2692 51.0747 53.5519 51.256C53.8345 51.432 54.0985 51.632 54.3439 51.856L53.9039 52.56C53.8345 52.6667 53.7439 52.736 53.6319 52.768C53.5252 52.7947 53.4052 52.768 53.2719 52.688C53.1439 52.6133 52.9972 52.5227 52.8319 52.416C52.6665 52.3093 52.4639 52.208 52.2239 52.112C51.9892 52.0107 51.7092 51.9253 51.3839 51.856C51.0639 51.7867 50.6825 51.752 50.2399 51.752C49.5945 51.752 49.0105 51.8587 48.4879 52.072C47.9652 52.28 47.5199 52.5813 47.1519 52.976C46.7839 53.3653 46.5012 53.84 46.3039 54.4C46.1065 54.9547 46.0079 55.5787 46.0079 56.272C46.0079 56.992 46.1092 57.6373 46.3119 58.208C46.5199 58.7733 46.8132 59.256 47.1919 59.656C47.5759 60.0507 48.0399 60.352 48.5839 60.56C49.1279 60.768 49.7385 60.872 50.4159 60.872C50.9492 60.872 51.4212 60.8133 51.8319 60.696C52.2479 60.5733 52.6532 60.4053 53.0479 60.192V57.672H51.2639C51.1625 57.672 51.0799 57.6427 51.0159 57.584C50.9572 57.5253 50.9279 57.4533 50.9279 57.368V56.488H54.4479ZM63.0108 53.896V62H62.1628C61.9601 62 61.8321 61.9013 61.7788 61.704L61.6668 60.832C61.3148 61.2213 60.9201 61.536 60.4828 61.776C60.0454 62.0107 59.5441 62.128 58.9788 62.128C58.5361 62.128 58.1441 62.056 57.8028 61.912C57.4668 61.7627 57.1841 61.5547 56.9548 61.288C56.7254 61.0213 56.5521 60.6987 56.4348 60.32C56.3228 59.9413 56.2668 59.5227 56.2668 59.064V53.896H57.6908V59.064C57.6908 59.6773 57.8294 60.152 58.1068 60.488C58.3894 60.824 58.8188 60.992 59.3948 60.992C59.8161 60.992 60.2081 60.8933 60.5708 60.696C60.9388 60.4933 61.2774 60.216 61.5868 59.864V53.896H63.0108ZM69.6606 58.352C69.0046 58.3733 68.4446 58.4267 67.9806 58.512C67.522 58.592 67.146 58.6987 66.8526 58.832C66.5646 58.9653 66.354 59.1227 66.2206 59.304C66.0926 59.4853 66.0286 59.688 66.0286 59.912C66.0286 60.1253 66.0633 60.3093 66.1326 60.464C66.202 60.6187 66.2953 60.7467 66.4126 60.848C66.5353 60.944 66.6766 61.016 66.8366 61.064C67.002 61.1067 67.178 61.128 67.3646 61.128C67.6153 61.128 67.8446 61.104 68.0526 61.056C68.2606 61.0027 68.4553 60.928 68.6366 60.832C68.8233 60.736 68.9993 60.6213 69.1646 60.488C69.3353 60.3547 69.5006 60.2027 69.6606 60.032V58.352ZM65.0606 55.04C65.5086 54.608 65.9913 54.2853 66.5086 54.072C67.026 53.8587 67.5993 53.752 68.2286 53.752C68.682 53.752 69.0846 53.8267 69.4366 53.976C69.7886 54.1253 70.0846 54.3333 70.3246 54.6C70.5646 54.8667 70.746 55.1893 70.8686 55.568C70.9913 55.9467 71.0526 56.3627 71.0526 56.816V62H70.4206C70.282 62 70.1753 61.9787 70.1006 61.936C70.026 61.888 69.9673 61.7973 69.9246 61.664L69.7646 60.896C69.5513 61.0933 69.3433 61.2693 69.1406 61.424C68.938 61.5733 68.7246 61.7013 68.5006 61.808C68.2766 61.9093 68.0366 61.9867 67.7806 62.04C67.53 62.0987 67.25 62.128 66.9406 62.128C66.626 62.128 66.33 62.0853 66.0526 62C65.7753 61.9093 65.5326 61.776 65.3246 61.6C65.122 61.424 64.9593 61.2027 64.8366 60.936C64.7193 60.664 64.6606 60.344 64.6606 59.976C64.6606 59.656 64.7486 59.3493 64.9246 59.056C65.1006 58.7573 65.386 58.4933 65.7806 58.264C66.1753 58.0347 66.69 57.848 67.3246 57.704C67.9593 57.5547 68.738 57.4693 69.6606 57.448V56.816C69.6606 56.1867 69.5246 55.712 69.2526 55.392C68.9806 55.0667 68.5833 54.904 68.0606 54.904C67.7086 54.904 67.4126 54.9493 67.1726 55.04C66.938 55.1253 66.7326 55.224 66.5566 55.336C66.386 55.4427 66.2366 55.5413 66.1086 55.632C65.986 55.7173 65.8633 55.76 65.7406 55.76C65.6446 55.76 65.562 55.736 65.4926 55.688C65.4233 55.6347 65.3646 55.5707 65.3166 55.496L65.0606 55.04ZM74.5738 55.52C74.8298 54.9653 75.1444 54.5333 75.5178 54.224C75.8911 53.9093 76.3471 53.752 76.8858 53.752C77.0564 53.752 77.2191 53.7707 77.3738 53.808C77.5338 53.8453 77.6751 53.904 77.7978 53.984L77.6938 55.048C77.6618 55.1813 77.5818 55.248 77.4538 55.248C77.3791 55.248 77.2698 55.232 77.1258 55.2C76.9818 55.168 76.8191 55.152 76.6378 55.152C76.3818 55.152 76.1524 55.1893 75.9498 55.264C75.7524 55.3387 75.5738 55.4507 75.4138 55.6C75.2591 55.744 75.1178 55.9253 74.9898 56.144C74.8671 56.3573 74.7551 56.6027 74.6538 56.88V62H73.2218V53.896H74.0378C74.1924 53.896 74.2991 53.9253 74.3578 53.984C74.4164 54.0427 74.4564 54.144 74.4778 54.288L74.5738 55.52ZM84.0174 55.824C83.7507 55.4667 83.4627 55.2187 83.1534 55.08C82.844 54.936 82.4974 54.864 82.1134 54.864C81.3614 54.864 80.7827 55.1333 80.3774 55.672C79.972 56.2107 79.7694 56.9787 79.7694 57.976C79.7694 58.504 79.8147 58.9573 79.9054 59.336C79.996 59.7093 80.1294 60.0187 80.3054 60.264C80.4814 60.504 80.6974 60.68 80.9534 60.792C81.2094 60.904 81.5 60.96 81.8254 60.96C82.2947 60.96 82.7027 60.8533 83.0494 60.64C83.4014 60.4267 83.724 60.1253 84.0174 59.736V55.824ZM85.4414 50.216V62H84.5934C84.3907 62 84.2627 61.9013 84.2094 61.704L84.0814 60.72C83.7347 61.136 83.34 61.472 82.8974 61.728C82.4547 61.984 81.9427 62.112 81.3614 62.112C80.8974 62.112 80.476 62.024 80.0974 61.848C79.7187 61.6667 79.396 61.4027 79.1294 61.056C78.8627 60.7093 78.6574 60.2773 78.5134 59.76C78.3694 59.2427 78.2974 58.648 78.2974 57.976C78.2974 57.3787 78.3774 56.824 78.5374 56.312C78.6974 55.7947 78.9267 55.3467 79.2254 54.968C79.524 54.5893 79.8894 54.2933 80.3214 54.08C80.7587 53.8613 81.2494 53.752 81.7934 53.752C82.2894 53.752 82.7134 53.8373 83.0654 54.008C83.4227 54.1733 83.74 54.4053 84.0174 54.704V50.216H85.4414ZM89.1945 53.896V62H87.7705V53.896H89.1945ZM89.4985 51.352C89.4985 51.4907 89.4692 51.6213 89.4105 51.744C89.3572 51.8613 89.2825 51.968 89.1865 52.064C89.0958 52.1547 88.9865 52.2267 88.8585 52.28C88.7358 52.3333 88.6052 52.36 88.4665 52.36C88.3278 52.36 88.1972 52.3333 88.0745 52.28C87.9572 52.2267 87.8532 52.1547 87.7625 52.064C87.6718 51.968 87.5998 51.8613 87.5465 51.744C87.4932 51.6213 87.4665 51.4907 87.4665 51.352C87.4665 51.2133 87.4932 51.0827 87.5465 50.96C87.5998 50.832 87.6718 50.7227 87.7625 50.632C87.8532 50.536 87.9572 50.4613 88.0745 50.408C88.1972 50.3547 88.3278 50.328 88.4665 50.328C88.6052 50.328 88.7358 50.3547 88.8585 50.408C88.9865 50.4613 89.0958 50.536 89.1865 50.632C89.2825 50.7227 89.3572 50.832 89.4105 50.96C89.4692 51.0827 89.4985 51.2133 89.4985 51.352ZM95.9263 58.352C95.2703 58.3733 94.7103 58.4267 94.2463 58.512C93.7876 58.592 93.4116 58.6987 93.1183 58.832C92.8303 58.9653 92.6196 59.1227 92.4863 59.304C92.3583 59.4853 92.2943 59.688 92.2943 59.912C92.2943 60.1253 92.3289 60.3093 92.3983 60.464C92.4676 60.6187 92.5609 60.7467 92.6783 60.848C92.8009 60.944 92.9423 61.016 93.1023 61.064C93.2676 61.1067 93.4436 61.128 93.6303 61.128C93.8809 61.128 94.1103 61.104 94.3183 61.056C94.5263 61.0027 94.7209 60.928 94.9023 60.832C95.0889 60.736 95.2649 60.6213 95.4303 60.488C95.6009 60.3547 95.7663 60.2027 95.9263 60.032V58.352ZM91.3263 55.04C91.7743 54.608 92.2569 54.2853 92.7743 54.072C93.2916 53.8587 93.8649 53.752 94.4943 53.752C94.9476 53.752 95.3503 53.8267 95.7023 53.976C96.0543 54.1253 96.3503 54.3333 96.5903 54.6C96.8303 54.8667 97.0116 55.1893 97.1343 55.568C97.2569 55.9467 97.3183 56.3627 97.3183 56.816V62H96.6863C96.5476 62 96.4409 61.9787 96.3663 61.936C96.2916 61.888 96.2329 61.7973 96.1903 61.664L96.0303 60.896C95.8169 61.0933 95.6089 61.2693 95.4062 61.424C95.2036 61.5733 94.9903 61.7013 94.7663 61.808C94.5423 61.9093 94.3023 61.9867 94.0463 62.04C93.7956 62.0987 93.5156 62.128 93.2063 62.128C92.8916 62.128 92.5956 62.0853 92.3183 62C92.0409 61.9093 91.7983 61.776 91.5903 61.6C91.3876 61.424 91.2249 61.2027 91.1023 60.936C90.9849 60.664 90.9263 60.344 90.9263 59.976C90.9263 59.656 91.0143 59.3493 91.1903 59.056C91.3663 58.7573 91.6516 58.4933 92.0463 58.264C92.4409 58.0347 92.9556 57.848 93.5903 57.704C94.2249 57.5547 95.0036 57.4693 95.9263 57.448V56.816C95.9263 56.1867 95.7903 55.712 95.5183 55.392C95.2463 55.0667 94.8489 54.904 94.3263 54.904C93.9743 54.904 93.6783 54.9493 93.4383 55.04C93.2036 55.1253 92.9983 55.224 92.8223 55.336C92.6516 55.4427 92.5023 55.5413 92.3743 55.632C92.2516 55.7173 92.1289 55.76 92.0063 55.76C91.9103 55.76 91.8276 55.736 91.7583 55.688C91.6889 55.6347 91.6303 55.5707 91.5822 55.496L91.3263 55.04ZM100.831 55.072C101.007 54.8747 101.194 54.696 101.391 54.536C101.589 54.376 101.797 54.24 102.015 54.128C102.239 54.0107 102.474 53.9227 102.719 53.864C102.97 53.8 103.239 53.768 103.527 53.768C103.97 53.768 104.359 53.8427 104.695 53.992C105.037 54.136 105.319 54.344 105.543 54.616C105.773 54.8827 105.946 55.2053 106.063 55.584C106.181 55.9627 106.239 56.3813 106.239 56.84V62H104.807V56.84C104.807 56.2267 104.666 55.752 104.383 55.416C104.106 55.0747 103.682 54.904 103.111 54.904C102.69 54.904 102.295 55.0053 101.927 55.208C101.565 55.4107 101.229 55.6853 100.919 56.032V62H99.4874V53.896H100.343C100.546 53.896 100.671 53.9947 100.719 54.192L100.831 55.072ZM122.127 50.536V62H121.351C121.228 62 121.124 61.9787 121.039 61.936C120.959 61.8933 120.879 61.8213 120.799 61.72L114.167 53.08C114.178 53.2133 114.186 53.344 114.191 53.472C114.196 53.6 114.199 53.72 114.199 53.832V62H112.839V50.536H113.639C113.708 50.536 113.767 50.5413 113.815 50.552C113.863 50.5573 113.906 50.5707 113.943 50.592C113.98 50.608 114.018 50.6347 114.055 50.672C114.092 50.704 114.132 50.7467 114.175 50.8L120.807 59.432C120.796 59.2933 120.786 59.16 120.775 59.032C120.77 58.8987 120.767 58.7733 120.767 58.656V50.536H122.127ZM129.896 57.064C129.896 56.7333 129.848 56.432 129.752 56.16C129.661 55.8827 129.525 55.6453 129.344 55.448C129.168 55.2453 128.952 55.0907 128.696 54.984C128.44 54.872 128.149 54.816 127.824 54.816C127.141 54.816 126.6 55.016 126.2 55.416C125.805 55.8107 125.56 56.36 125.464 57.064H129.896ZM131.048 60.864C130.872 61.0773 130.661 61.264 130.416 61.424C130.17 61.5787 129.906 61.7067 129.624 61.808C129.346 61.9093 129.058 61.984 128.76 62.032C128.461 62.0853 128.165 62.112 127.872 62.112C127.312 62.112 126.794 62.0187 126.32 61.832C125.85 61.64 125.442 61.3627 125.096 61C124.754 60.632 124.488 60.1787 124.296 59.64C124.104 59.1013 124.008 58.4827 124.008 57.784C124.008 57.2187 124.093 56.6907 124.264 56.2C124.44 55.7093 124.69 55.2853 125.016 54.928C125.341 54.5653 125.738 54.2827 126.208 54.08C126.677 53.872 127.205 53.768 127.792 53.768C128.277 53.768 128.725 53.8507 129.136 54.016C129.552 54.176 129.909 54.4107 130.208 54.72C130.512 55.024 130.749 55.4027 130.92 55.856C131.09 56.304 131.176 56.816 131.176 57.392C131.176 57.616 131.152 57.7653 131.104 57.84C131.056 57.9147 130.965 57.952 130.832 57.952H125.416C125.432 58.464 125.501 58.9093 125.624 59.288C125.752 59.6667 125.928 59.984 126.152 60.24C126.376 60.4907 126.642 60.68 126.952 60.808C127.261 60.9307 127.608 60.992 127.992 60.992C128.349 60.992 128.656 60.952 128.912 60.872C129.173 60.7867 129.397 60.696 129.584 60.6C129.77 60.504 129.925 60.416 130.048 60.336C130.176 60.2507 130.285 60.208 130.376 60.208C130.493 60.208 130.584 60.2533 130.648 60.344L131.048 60.864ZM144.023 53.896L141.399 62H140.271C140.132 62 140.036 61.9093 139.983 61.728L138.191 56.232C138.148 56.1093 138.113 55.9867 138.087 55.864C138.06 55.736 138.033 55.6107 138.007 55.488C137.98 55.6107 137.953 55.736 137.927 55.864C137.9 55.9867 137.865 56.112 137.823 56.24L135.999 61.728C135.951 61.9093 135.844 62 135.679 62H134.607L131.983 53.896H133.103C133.215 53.896 133.308 53.9253 133.383 53.984C133.463 54.0427 133.516 54.112 133.543 54.192L135.095 59.408C135.185 59.792 135.257 60.1547 135.311 60.496C135.359 60.32 135.407 60.1413 135.455 59.96C135.508 59.7787 135.564 59.5947 135.623 59.408L137.335 54.16C137.361 54.08 137.407 54.0133 137.471 53.96C137.54 53.9067 137.623 53.88 137.719 53.88H138.343C138.449 53.88 138.537 53.9067 138.607 53.96C138.676 54.0133 138.724 54.08 138.751 54.16L140.423 59.408C140.481 59.5947 140.535 59.7787 140.583 59.96C140.631 60.1413 140.676 60.32 140.719 60.496C140.745 60.32 140.777 60.144 140.815 59.968C140.857 59.7867 140.903 59.6 140.951 59.408L142.535 54.192C142.561 54.1067 142.612 54.0373 142.687 53.984C142.761 53.9253 142.849 53.896 142.951 53.896H144.023ZM150.067 55.232C150.003 55.3493 149.904 55.408 149.771 55.408C149.691 55.408 149.6 55.3787 149.499 55.32C149.397 55.2613 149.272 55.1973 149.123 55.128C148.979 55.0533 148.805 54.9867 148.603 54.928C148.4 54.864 148.16 54.832 147.883 54.832C147.643 54.832 147.427 54.864 147.235 54.928C147.043 54.9867 146.877 55.0693 146.739 55.176C146.605 55.2827 146.501 55.408 146.427 55.552C146.357 55.6907 146.323 55.8427 146.323 56.008C146.323 56.216 146.381 56.3893 146.499 56.528C146.621 56.6667 146.781 56.7867 146.979 56.888C147.176 56.9893 147.4 57.08 147.651 57.16C147.901 57.2347 148.157 57.3173 148.419 57.408C148.685 57.4933 148.944 57.5893 149.195 57.696C149.445 57.8027 149.669 57.936 149.867 58.096C150.064 58.256 150.221 58.4533 150.339 58.688C150.461 58.9173 150.523 59.1947 150.523 59.52C150.523 59.8933 150.456 60.24 150.323 60.56C150.189 60.8747 149.992 61.1493 149.731 61.384C149.469 61.6133 149.149 61.7947 148.771 61.928C148.392 62.0613 147.955 62.128 147.459 62.128C146.893 62.128 146.381 62.0373 145.923 61.856C145.464 61.6693 145.075 61.432 144.755 61.144L145.091 60.6C145.133 60.5307 145.184 60.4773 145.243 60.44C145.301 60.4027 145.376 60.384 145.467 60.384C145.563 60.384 145.664 60.4213 145.771 60.496C145.877 60.5707 146.005 60.6533 146.155 60.744C146.309 60.8347 146.496 60.9173 146.715 60.992C146.933 61.0667 147.205 61.104 147.531 61.104C147.808 61.104 148.051 61.0693 148.259 61C148.467 60.9253 148.64 60.8267 148.779 60.704C148.917 60.5813 149.019 60.44 149.083 60.28C149.152 60.12 149.187 59.9493 149.187 59.768C149.187 59.544 149.125 59.36 149.003 59.216C148.885 59.0667 148.728 58.9413 148.531 58.84C148.333 58.7333 148.107 58.6427 147.851 58.568C147.6 58.488 147.341 58.4053 147.075 58.32C146.813 58.2347 146.555 58.1387 146.299 58.032C146.048 57.92 145.824 57.7813 145.627 57.616C145.429 57.4507 145.269 57.248 145.147 57.008C145.029 56.7627 144.971 56.4667 144.971 56.12C144.971 55.8107 145.035 55.5147 145.163 55.232C145.291 54.944 145.477 54.6933 145.723 54.48C145.968 54.2613 146.269 54.088 146.627 53.96C146.984 53.832 147.392 53.768 147.851 53.768C148.384 53.768 148.861 53.8533 149.283 54.024C149.709 54.1893 150.077 54.4187 150.387 54.712L150.067 55.232ZM165.44 50.536L160.768 62H159.376L154.704 50.536H155.944C156.083 50.536 156.195 50.5707 156.28 50.64C156.366 50.7093 156.43 50.7973 156.472 50.904L159.704 58.992C159.774 59.1733 159.84 59.3707 159.904 59.584C159.974 59.7973 160.035 60.0213 160.088 60.256C160.142 60.0213 160.198 59.7973 160.256 59.584C160.315 59.3707 160.379 59.1733 160.448 58.992L163.672 50.904C163.704 50.8133 163.766 50.7307 163.856 50.656C163.952 50.576 164.067 50.536 164.2 50.536H165.44ZM168.116 53.896V62H166.692V53.896H168.116ZM168.42 51.352C168.42 51.4907 168.391 51.6213 168.332 51.744C168.279 51.8613 168.204 51.968 168.108 52.064C168.018 52.1547 167.908 52.2267 167.78 52.28C167.658 52.3333 167.527 52.36 167.388 52.36C167.25 52.36 167.119 52.3333 166.996 52.28C166.879 52.2267 166.775 52.1547 166.684 52.064C166.594 51.968 166.522 51.8613 166.468 51.744C166.415 51.6213 166.388 51.4907 166.388 51.352C166.388 51.2133 166.415 51.0827 166.468 50.96C166.522 50.832 166.594 50.7227 166.684 50.632C166.775 50.536 166.879 50.4613 166.996 50.408C167.119 50.3547 167.25 50.328 167.388 50.328C167.527 50.328 167.658 50.3547 167.78 50.408C167.908 50.4613 168.018 50.536 168.108 50.632C168.204 50.7227 168.279 50.832 168.332 50.96C168.391 51.0827 168.42 51.2133 168.42 51.352ZM175.736 55.824C175.469 55.4667 175.181 55.2187 174.872 55.08C174.563 54.936 174.216 54.864 173.832 54.864C173.08 54.864 172.501 55.1333 172.096 55.672C171.691 56.2107 171.488 56.9787 171.488 57.976C171.488 58.504 171.533 58.9573 171.624 59.336C171.715 59.7093 171.848 60.0187 172.024 60.264C172.2 60.504 172.416 60.68 172.672 60.792C172.928 60.904 173.219 60.96 173.544 60.96C174.013 60.96 174.421 60.8533 174.768 60.64C175.12 60.4267 175.443 60.1253 175.736 59.736V55.824ZM177.16 50.216V62H176.312C176.109 62 175.981 61.9013 175.928 61.704L175.8 60.72C175.453 61.136 175.059 61.472 174.616 61.728C174.173 61.984 173.661 62.112 173.08 62.112C172.616 62.112 172.195 62.024 171.816 61.848C171.437 61.6667 171.115 61.4027 170.848 61.056C170.581 60.7093 170.376 60.2773 170.232 59.76C170.088 59.2427 170.016 58.648 170.016 57.976C170.016 57.3787 170.096 56.824 170.256 56.312C170.416 55.7947 170.645 55.3467 170.944 54.968C171.243 54.5893 171.608 54.2933 172.04 54.08C172.477 53.8613 172.968 53.752 173.512 53.752C174.008 53.752 174.432 53.8373 174.784 54.008C175.141 54.1733 175.459 54.4053 175.736 54.704V50.216H177.16ZM180.913 53.896V62H179.489V53.896H180.913ZM181.217 51.352C181.217 51.4907 181.188 51.6213 181.129 51.744C181.076 51.8613 181.001 51.968 180.905 52.064C180.815 52.1547 180.705 52.2267 180.577 52.28C180.455 52.3333 180.324 52.36 180.185 52.36C180.047 52.36 179.916 52.3333 179.793 52.28C179.676 52.2267 179.572 52.1547 179.481 52.064C179.391 51.968 179.319 51.8613 179.265 51.744C179.212 51.6213 179.185 51.4907 179.185 51.352C179.185 51.2133 179.212 51.0827 179.265 50.96C179.319 50.832 179.391 50.7227 179.481 50.632C179.572 50.536 179.676 50.4613 179.793 50.408C179.916 50.3547 180.047 50.328 180.185 50.328C180.324 50.328 180.455 50.3547 180.577 50.408C180.705 50.4613 180.815 50.536 180.905 50.632C181.001 50.7227 181.076 50.832 181.129 50.96C181.188 51.0827 181.217 51.2133 181.217 51.352ZM184.685 60.048C184.946 60.4 185.232 60.648 185.541 60.792C185.85 60.936 186.197 61.008 186.581 61.008C187.338 61.008 187.92 60.7387 188.325 60.2C188.73 59.6613 188.933 58.8933 188.933 57.896C188.933 57.368 188.885 56.9147 188.789 56.536C188.698 56.1573 188.565 55.848 188.389 55.608C188.213 55.3627 187.997 55.184 187.741 55.072C187.485 54.96 187.194 54.904 186.869 54.904C186.405 54.904 185.997 55.0107 185.645 55.224C185.298 55.4373 184.978 55.7387 184.685 56.128V60.048ZM184.613 55.152C184.954 54.7307 185.349 54.392 185.797 54.136C186.245 53.88 186.757 53.752 187.333 53.752C187.802 53.752 188.226 53.8427 188.605 54.024C188.984 54.2 189.306 54.464 189.573 54.816C189.84 55.1627 190.045 55.5947 190.189 56.112C190.333 56.6293 190.405 57.224 190.405 57.896C190.405 58.4933 190.325 59.0507 190.165 59.568C190.005 60.08 189.773 60.5253 189.469 60.904C189.17 61.2773 188.802 61.5733 188.365 61.792C187.933 62.0053 187.445 62.112 186.901 62.112C186.405 62.112 185.978 62.0293 185.621 61.864C185.269 61.6933 184.957 61.4587 184.685 61.16V64.744H183.253V53.896H184.109C184.312 53.896 184.437 53.9947 184.485 54.192L184.613 55.152ZM193.574 55.52C193.83 54.9653 194.144 54.5333 194.518 54.224C194.891 53.9093 195.347 53.752 195.886 53.752C196.056 53.752 196.219 53.7707 196.374 53.808C196.534 53.8453 196.675 53.904 196.798 53.984L196.694 55.048C196.662 55.1813 196.582 55.248 196.454 55.248C196.379 55.248 196.27 55.232 196.126 55.2C195.982 55.168 195.819 55.152 195.638 55.152C195.382 55.152 195.152 55.1893 194.95 55.264C194.752 55.3387 194.574 55.4507 194.414 55.6C194.259 55.744 194.118 55.9253 193.99 56.144C193.867 56.3573 193.755 56.6027 193.654 56.88V62H192.222V53.896H193.038C193.192 53.896 193.299 53.9253 193.358 53.984C193.416 54.0427 193.456 54.144 193.478 54.288L193.574 55.52ZM199.554 53.896V62H198.13V53.896H199.554ZM199.858 51.352C199.858 51.4907 199.829 51.6213 199.77 51.744C199.717 51.8613 199.642 51.968 199.546 52.064C199.455 52.1547 199.346 52.2267 199.218 52.28C199.095 52.3333 198.965 52.36 198.826 52.36C198.687 52.36 198.557 52.3333 198.434 52.28C198.317 52.2267 198.213 52.1547 198.122 52.064C198.031 51.968 197.959 51.8613 197.906 51.744C197.853 51.6213 197.826 51.4907 197.826 51.352C197.826 51.2133 197.853 51.0827 197.906 50.96C197.959 50.832 198.031 50.7227 198.122 50.632C198.213 50.536 198.317 50.4613 198.434 50.408C198.557 50.3547 198.687 50.328 198.826 50.328C198.965 50.328 199.095 50.3547 199.218 50.408C199.346 50.4613 199.455 50.536 199.546 50.632C199.642 50.7227 199.717 50.832 199.77 50.96C199.829 51.0827 199.858 51.2133 199.858 51.352ZM203.238 55.072C203.414 54.8747 203.6 54.696 203.798 54.536C203.995 54.376 204.203 54.24 204.422 54.128C204.646 54.0107 204.88 53.9227 205.126 53.864C205.376 53.8 205.646 53.768 205.934 53.768C206.376 53.768 206.766 53.8427 207.102 53.992C207.443 54.136 207.726 54.344 207.95 54.616C208.179 54.8827 208.352 55.2053 208.47 55.584C208.587 55.9627 208.646 56.3813 208.646 56.84V62H207.214V56.84C207.214 56.2267 207.072 55.752 206.79 55.416C206.512 55.0747 206.088 54.904 205.518 54.904C205.096 54.904 204.702 55.0053 204.334 55.208C203.971 55.4107 203.635 55.6853 203.326 56.032V62H201.894V53.896H202.75C202.952 53.896 203.078 53.9947 203.126 54.192L203.238 55.072ZM213.194 62.128C212.554 62.128 212.061 61.9493 211.714 61.592C211.373 61.2347 211.202 60.72 211.202 60.048V55.088H210.226C210.141 55.088 210.069 55.064 210.01 55.016C209.951 54.9627 209.922 54.8827 209.922 54.776V54.208L211.25 54.04L211.578 51.536C211.594 51.456 211.629 51.392 211.682 51.344C211.741 51.2907 211.815 51.264 211.906 51.264H212.626V54.056H214.97V55.088H212.626V59.952C212.626 60.2933 212.709 60.5467 212.874 60.712C213.039 60.8773 213.253 60.96 213.514 60.96C213.663 60.96 213.791 60.9413 213.898 60.904C214.01 60.8613 214.106 60.816 214.186 60.768C214.266 60.72 214.333 60.6773 214.386 60.64C214.445 60.5973 214.495 60.576 214.538 60.576C214.613 60.576 214.679 60.6213 214.738 60.712L215.154 61.392C214.909 61.6213 214.613 61.8027 214.266 61.936C213.919 62.064 213.562 62.128 213.194 62.128ZM221.818 57.064C221.818 56.7333 221.77 56.432 221.674 56.16C221.583 55.8827 221.447 55.6453 221.266 55.448C221.09 55.2453 220.874 55.0907 220.618 54.984C220.362 54.872 220.071 54.816 219.746 54.816C219.063 54.816 218.522 55.016 218.122 55.416C217.727 55.8107 217.482 56.36 217.386 57.064H221.818ZM222.97 60.864C222.794 61.0773 222.583 61.264 222.338 61.424C222.092 61.5787 221.828 61.7067 221.546 61.808C221.268 61.9093 220.98 61.984 220.682 62.032C220.383 62.0853 220.087 62.112 219.794 62.112C219.234 62.112 218.716 62.0187 218.242 61.832C217.772 61.64 217.364 61.3627 217.018 61C216.676 60.632 216.41 60.1787 216.218 59.64C216.026 59.1013 215.93 58.4827 215.93 57.784C215.93 57.2187 216.015 56.6907 216.186 56.2C216.362 55.7093 216.612 55.2853 216.938 54.928C217.263 54.5653 217.66 54.2827 218.13 54.08C218.599 53.872 219.127 53.768 219.714 53.768C220.199 53.768 220.647 53.8507 221.058 54.016C221.474 54.176 221.831 54.4107 222.13 54.72C222.434 55.024 222.671 55.4027 222.842 55.856C223.012 56.304 223.098 56.816 223.098 57.392C223.098 57.616 223.074 57.7653 223.026 57.84C222.978 57.9147 222.887 57.952 222.754 57.952H217.338C217.354 58.464 217.423 58.9093 217.546 59.288C217.674 59.6667 217.85 59.984 218.074 60.24C218.298 60.4907 218.564 60.68 218.874 60.808C219.183 60.9307 219.53 60.992 219.914 60.992C220.271 60.992 220.578 60.952 220.834 60.872C221.095 60.7867 221.319 60.696 221.506 60.6C221.692 60.504 221.847 60.416 221.97 60.336C222.098 60.2507 222.207 60.208 222.298 60.208C222.415 60.208 222.506 60.2533 222.57 60.344L222.97 60.864ZM226.199 55.52C226.455 54.9653 226.769 54.5333 227.143 54.224C227.516 53.9093 227.972 53.752 228.511 53.752C228.681 53.752 228.844 53.7707 228.999 53.808C229.159 53.8453 229.3 53.904 229.423 53.984L229.319 55.048C229.287 55.1813 229.207 55.248 229.079 55.248C229.004 55.248 228.895 55.232 228.751 55.2C228.607 55.168 228.444 55.152 228.263 55.152C228.007 55.152 227.777 55.1893 227.575 55.264C227.377 55.3387 227.199 55.4507 227.039 55.6C226.884 55.744 226.743 55.9253 226.615 56.144C226.492 56.3573 226.38 56.6027 226.279 56.88V62H224.847V53.896H225.663C225.817 53.896 225.924 53.9253 225.983 53.984C226.041 54.0427 226.081 54.144 226.103 54.288L226.199 55.52ZM229.81 61.12C229.81 60.9813 229.834 60.8507 229.882 60.728C229.935 60.6053 230.005 60.4987 230.09 60.408C230.181 60.3173 230.287 60.2453 230.41 60.192C230.533 60.1387 230.663 60.112 230.802 60.112C230.941 60.112 231.071 60.1387 231.194 60.192C231.317 60.2453 231.423 60.3173 231.514 60.408C231.605 60.4987 231.677 60.6053 231.73 60.728C231.783 60.8507 231.81 60.9813 231.81 61.12C231.81 61.264 231.783 61.3973 231.73 61.52C231.677 61.6373 231.605 61.7413 231.514 61.832C231.423 61.9227 231.317 61.992 231.194 62.04C231.071 62.0933 230.941 62.12 230.802 62.12C230.663 62.12 230.533 62.0933 230.41 62.04C230.287 61.992 230.181 61.9227 230.09 61.832C230.005 61.7413 229.935 61.6373 229.882 61.52C229.834 61.3973 229.81 61.264 229.81 61.12ZM239.813 51.8V55.808H244.525V57.072H239.813V62H238.261V50.536H245.325V51.8H239.813ZM249.685 53.768C250.277 53.768 250.81 53.8667 251.285 54.064C251.759 54.2613 252.165 54.5413 252.501 54.904C252.837 55.2667 253.093 55.7067 253.269 56.224C253.45 56.736 253.541 57.3093 253.541 57.944C253.541 58.584 253.45 59.16 253.269 59.672C253.093 60.184 252.837 60.6213 252.501 60.984C252.165 61.3467 251.759 61.6267 251.285 61.824C250.81 62.016 250.277 62.112 249.685 62.112C249.087 62.112 248.549 62.016 248.069 61.824C247.594 61.6267 247.189 61.3467 246.853 60.984C246.517 60.6213 246.258 60.184 246.077 59.672C245.901 59.16 245.813 58.584 245.813 57.944C245.813 57.3093 245.901 56.736 246.077 56.224C246.258 55.7067 246.517 55.2667 246.853 54.904C247.189 54.5413 247.594 54.2613 248.069 54.064C248.549 53.8667 249.087 53.768 249.685 53.768ZM249.685 61C250.485 61 251.082 60.7333 251.477 60.2C251.871 59.6613 252.069 58.912 252.069 57.952C252.069 56.9867 251.871 56.2347 251.477 55.696C251.082 55.1573 250.485 54.888 249.685 54.888C249.279 54.888 248.925 54.9573 248.621 55.096C248.322 55.2347 248.071 55.4347 247.869 55.696C247.671 55.9573 247.522 56.28 247.421 56.664C247.325 57.0427 247.277 57.472 247.277 57.952C247.277 58.912 247.474 59.6613 247.869 60.2C248.269 60.7333 248.874 61 249.685 61ZM256.819 50.216V62H255.395V50.216H256.819ZM260.6 50.216V62H259.176V50.216H260.6ZM266.325 53.768C266.917 53.768 267.451 53.8667 267.925 54.064C268.4 54.2613 268.805 54.5413 269.141 54.904C269.477 55.2667 269.733 55.7067 269.909 56.224C270.091 56.736 270.181 57.3093 270.181 57.944C270.181 58.584 270.091 59.16 269.909 59.672C269.733 60.184 269.477 60.6213 269.141 60.984C268.805 61.3467 268.4 61.6267 267.925 61.824C267.451 62.016 266.917 62.112 266.325 62.112C265.728 62.112 265.189 62.016 264.709 61.824C264.235 61.6267 263.829 61.3467 263.493 60.984C263.157 60.6213 262.899 60.184 262.717 59.672C262.541 59.16 262.453 58.584 262.453 57.944C262.453 57.3093 262.541 56.736 262.717 56.224C262.899 55.7067 263.157 55.2667 263.493 54.904C263.829 54.5413 264.235 54.2613 264.709 54.064C265.189 53.8667 265.728 53.768 266.325 53.768ZM266.325 61C267.125 61 267.723 60.7333 268.117 60.2C268.512 59.6613 268.709 58.912 268.709 57.952C268.709 56.9867 268.512 56.2347 268.117 55.696C267.723 55.1573 267.125 54.888 266.325 54.888C265.92 54.888 265.565 54.9573 265.261 55.096C264.963 55.2347 264.712 55.4347 264.509 55.696C264.312 55.9573 264.163 56.28 264.061 56.664C263.965 57.0427 263.917 57.472 263.917 57.952C263.917 58.912 264.115 59.6613 264.509 60.2C264.909 60.7333 265.515 61 266.325 61ZM283.038 53.896L280.414 62H279.286C279.148 62 279.052 61.9093 278.998 61.728L277.206 56.232C277.164 56.1093 277.129 55.9867 277.102 55.864C277.076 55.736 277.049 55.6107 277.022 55.488C276.996 55.6107 276.969 55.736 276.942 55.864C276.916 55.9867 276.881 56.112 276.838 56.24L275.014 61.728C274.966 61.9093 274.86 62 274.694 62H273.622L270.998 53.896H272.118C272.23 53.896 272.324 53.9253 272.398 53.984C272.478 54.0427 272.532 54.112 272.558 54.192L274.11 59.408C274.201 59.792 274.273 60.1547 274.326 60.496C274.374 60.32 274.422 60.1413 274.47 59.96C274.524 59.7787 274.58 59.5947 274.638 59.408L276.35 54.16C276.377 54.08 276.422 54.0133 276.486 53.96C276.556 53.9067 276.638 53.88 276.734 53.88H277.358C277.465 53.88 277.553 53.9067 277.622 53.96C277.692 54.0133 277.74 54.08 277.766 54.16L279.438 59.408C279.497 59.5947 279.55 59.7787 279.598 59.96C279.646 60.1413 279.692 60.32 279.734 60.496C279.761 60.32 279.793 60.144 279.83 59.968C279.873 59.7867 279.918 59.6 279.966 59.408L281.55 54.192C281.577 54.1067 281.628 54.0373 281.702 53.984C281.777 53.9253 281.865 53.896 281.966 53.896H283.038ZM290.679 62.128C290.039 62.128 289.545 61.9493 289.199 61.592C288.857 61.2347 288.687 60.72 288.687 60.048V55.088H287.711C287.625 55.088 287.553 55.064 287.495 55.016C287.436 54.9627 287.407 54.8827 287.407 54.776V54.208L288.735 54.04L289.062 51.536C289.079 51.456 289.113 51.392 289.167 51.344C289.225 51.2907 289.3 51.264 289.391 51.264H290.111V54.056H292.455V55.088H290.111V59.952C290.111 60.2933 290.193 60.5467 290.359 60.712C290.524 60.8773 290.737 60.96 290.999 60.96C291.148 60.96 291.276 60.9413 291.383 60.904C291.495 60.8613 291.591 60.816 291.671 60.768C291.751 60.72 291.817 60.6773 291.871 60.64C291.929 60.5973 291.98 60.576 292.023 60.576C292.097 60.576 292.164 60.6213 292.223 60.712L292.639 61.392C292.393 61.6213 292.097 61.8027 291.751 61.936C291.404 62.064 291.047 62.128 290.679 62.128ZM295.357 54.976C295.704 54.608 296.088 54.3147 296.509 54.096C296.93 53.8773 297.416 53.768 297.965 53.768C298.408 53.768 298.797 53.8427 299.133 53.992C299.474 54.136 299.757 54.344 299.981 54.616C300.21 54.8827 300.384 55.2053 300.501 55.584C300.618 55.9627 300.677 56.3813 300.677 56.84V62H299.245V56.84C299.245 56.2267 299.104 55.752 298.821 55.416C298.544 55.0747 298.12 54.904 297.549 54.904C297.128 54.904 296.733 55.0053 296.365 55.208C296.002 55.4107 295.666 55.6853 295.357 56.032V62H293.925V50.216H295.357V54.976ZM308.271 57.064C308.271 56.7333 308.223 56.432 308.127 56.16C308.036 55.8827 307.9 55.6453 307.719 55.448C307.543 55.2453 307.327 55.0907 307.071 54.984C306.815 54.872 306.524 54.816 306.199 54.816C305.516 54.816 304.975 55.016 304.575 55.416C304.18 55.8107 303.935 56.36 303.839 57.064H308.271ZM309.423 60.864C309.247 61.0773 309.036 61.264 308.791 61.424C308.545 61.5787 308.281 61.7067 307.999 61.808C307.721 61.9093 307.433 61.984 307.135 62.032C306.836 62.0853 306.54 62.112 306.247 62.112C305.687 62.112 305.169 62.0187 304.695 61.832C304.225 61.64 303.817 61.3627 303.471 61C303.129 60.632 302.863 60.1787 302.671 59.64C302.479 59.1013 302.383 58.4827 302.383 57.784C302.383 57.2187 302.468 56.6907 302.639 56.2C302.815 55.7093 303.065 55.2853 303.391 54.928C303.716 54.5653 304.113 54.2827 304.583 54.08C305.052 53.872 305.58 53.768 306.167 53.768C306.652 53.768 307.1 53.8507 307.511 54.016C307.927 54.176 308.284 54.4107 308.583 54.72C308.887 55.024 309.124 55.4027 309.295 55.856C309.465 56.304 309.551 56.816 309.551 57.392C309.551 57.616 309.527 57.7653 309.479 57.84C309.431 57.9147 309.34 57.952 309.207 57.952H303.791C303.807 58.464 303.876 58.9093 303.999 59.288C304.127 59.6667 304.303 59.984 304.527 60.24C304.751 60.4907 305.017 60.68 305.327 60.808C305.636 60.9307 305.983 60.992 306.367 60.992C306.724 60.992 307.031 60.952 307.287 60.872C307.548 60.7867 307.772 60.696 307.959 60.6C308.145 60.504 308.3 60.416 308.423 60.336C308.551 60.2507 308.66 60.208 308.751 60.208C308.868 60.208 308.959 60.2533 309.023 60.344L309.423 60.864ZM3.952 81.04C4.24 81.04 4.49333 81 4.712 80.92C4.93067 80.84 5.11467 80.728 5.264 80.584C5.41333 80.44 5.52533 80.2693 5.6 80.072C5.67467 79.8693 5.712 79.648 5.712 79.408C5.712 78.912 5.56 78.5173 5.256 78.224C4.95733 77.9307 4.52267 77.784 3.952 77.784C3.376 77.784 2.936 77.9307 2.632 78.224C2.33333 78.5173 2.184 78.912 2.184 79.408C2.184 79.648 2.22133 79.8693 2.296 80.072C2.376 80.2693 2.49067 80.44 2.64 80.584C2.78933 80.728 2.97333 80.84 3.192 80.92C3.41067 81 3.664 81.04 3.952 81.04ZM6.52 85.44C6.52 85.2427 6.464 85.0827 6.352 84.96C6.24 84.8373 6.088 84.7413 5.896 84.672C5.70933 84.6027 5.49067 84.5547 5.24 84.528C4.98933 84.496 4.72267 84.472 4.44 84.456C4.16267 84.44 3.88 84.424 3.592 84.408C3.304 84.392 3.02667 84.3653 2.76 84.328C2.46133 84.4667 2.216 84.6427 2.024 84.856C1.83733 85.064 1.744 85.3093 1.744 85.592C1.744 85.7733 1.78933 85.9413 1.88 86.096C1.976 86.256 2.12 86.392 2.312 86.504C2.504 86.6213 2.744 86.712 3.032 86.776C3.32533 86.8453 3.66933 86.88 4.064 86.88C4.448 86.88 4.792 86.8453 5.096 86.776C5.4 86.7067 5.656 86.608 5.864 86.48C6.07733 86.352 6.24 86.2 6.352 86.024C6.464 85.848 6.52 85.6533 6.52 85.44ZM7.968 77.216V77.744C7.968 77.92 7.856 78.032 7.632 78.08L6.712 78.2C6.89333 78.552 6.984 78.9413 6.984 79.368C6.984 79.7627 6.90667 80.1227 6.752 80.448C6.60267 80.768 6.39467 81.0427 6.128 81.272C5.86133 81.5013 5.54133 81.6773 5.168 81.8C4.79467 81.9227 4.38933 81.984 3.952 81.984C3.57333 81.984 3.216 81.9387 2.88 81.848C2.70933 81.9547 2.57867 82.0693 2.488 82.192C2.39733 82.3093 2.352 82.4293 2.352 82.552C2.352 82.744 2.42933 82.8907 2.584 82.992C2.744 83.088 2.952 83.1573 3.208 83.2C3.464 83.2427 3.75467 83.2693 4.08 83.28C4.41067 83.2907 4.74667 83.3093 5.088 83.336C5.43467 83.3573 5.77067 83.3973 6.096 83.456C6.42667 83.5147 6.72 83.6107 6.976 83.744C7.232 83.8773 7.43733 84.0613 7.592 84.296C7.752 84.5307 7.832 84.8347 7.832 85.208C7.832 85.5547 7.744 85.8907 7.568 86.216C7.39733 86.5413 7.14933 86.8293 6.824 87.08C6.49867 87.336 6.09867 87.5387 5.624 87.688C5.15467 87.8427 4.624 87.92 4.032 87.92C3.44 87.92 2.92267 87.8613 2.48 87.744C2.03733 87.6267 1.66933 87.4693 1.376 87.272C1.08267 87.0747 0.861333 86.8453 0.712 86.584C0.568 86.328 0.496 86.0587 0.496 85.776C0.496 85.376 0.621333 85.0373 0.872 84.76C1.12267 84.4827 1.46667 84.2613 1.904 84.096C1.664 83.9893 1.472 83.848 1.328 83.672C1.18933 83.4907 1.12 83.248 1.12 82.944C1.12 82.8267 1.14133 82.7067 1.184 82.584C1.22667 82.456 1.29067 82.3307 1.376 82.208C1.46667 82.08 1.576 81.96 1.704 81.848C1.832 81.736 1.98133 81.6373 2.152 81.552C1.752 81.328 1.44 81.032 1.216 80.664C0.992 80.2907 0.88 79.8587 0.88 79.368C0.88 78.9733 0.954667 78.616 1.104 78.296C1.25867 77.9707 1.472 77.696 1.744 77.472C2.016 77.2427 2.33867 77.0667 2.712 76.944C3.09067 76.8213 3.504 76.76 3.952 76.76C4.304 76.76 4.632 76.8 4.936 76.88C5.24 76.9547 5.51733 77.0667 5.768 77.216H7.968ZM12.7315 76.768C13.3235 76.768 13.8568 76.8667 14.3315 77.064C14.8062 77.2613 15.2115 77.5413 15.5475 77.904C15.8835 78.2667 16.1395 78.7067 16.3155 79.224C16.4968 79.736 16.5875 80.3093 16.5875 80.944C16.5875 81.584 16.4968 82.16 16.3155 82.672C16.1395 83.184 15.8835 83.6213 15.5475 83.984C15.2115 84.3467 14.8062 84.6267 14.3315 84.824C13.8568 85.016 13.3235 85.112 12.7315 85.112C12.1342 85.112 11.5955 85.016 11.1155 84.824C10.6408 84.6267 10.2355 84.3467 9.8995 83.984C9.5635 83.6213 9.30483 83.184 9.1235 82.672C8.9475 82.16 8.8595 81.584 8.8595 80.944C8.8595 80.3093 8.9475 79.736 9.1235 79.224C9.30483 78.7067 9.5635 78.2667 9.8995 77.904C10.2355 77.5413 10.6408 77.2613 11.1155 77.064C11.5955 76.8667 12.1342 76.768 12.7315 76.768ZM12.7315 84C13.5315 84 14.1288 83.7333 14.5235 83.2C14.9182 82.6613 15.1155 81.912 15.1155 80.952C15.1155 79.9867 14.9182 79.2347 14.5235 78.696C14.1288 78.1573 13.5315 77.888 12.7315 77.888C12.3262 77.888 11.9715 77.9573 11.6675 78.096C11.3688 78.2347 11.1182 78.4347 10.9155 78.696C10.7182 78.9573 10.5688 79.28 10.4675 79.664C10.3715 80.0427 10.3235 80.472 10.3235 80.952C10.3235 81.912 10.5208 82.6613 10.9155 83.2C11.3155 83.7333 11.9208 84 12.7315 84ZM22.7856 81.352C22.1296 81.3733 21.5696 81.4267 21.1056 81.512C20.647 81.592 20.271 81.6987 19.9776 81.832C19.6896 81.9653 19.479 82.1227 19.3456 82.304C19.2176 82.4853 19.1536 82.688 19.1536 82.912C19.1536 83.1253 19.1883 83.3093 19.2576 83.464C19.327 83.6187 19.4203 83.7467 19.5376 83.848C19.6603 83.944 19.8016 84.016 19.9616 84.064C20.127 84.1067 20.303 84.128 20.4896 84.128C20.7403 84.128 20.9696 84.104 21.1776 84.056C21.3856 84.0027 21.5803 83.928 21.7616 83.832C21.9483 83.736 22.1243 83.6213 22.2896 83.488C22.4603 83.3547 22.6256 83.2027 22.7856 83.032V81.352ZM18.1856 78.04C18.6336 77.608 19.1163 77.2853 19.6336 77.072C20.151 76.8587 20.7243 76.752 21.3536 76.752C21.807 76.752 22.2096 76.8267 22.5616 76.976C22.9136 77.1253 23.2096 77.3333 23.4496 77.6C23.6896 77.8667 23.871 78.1893 23.9936 78.568C24.1163 78.9467 24.1776 79.3627 24.1776 79.816V85H23.5456C23.407 85 23.3003 84.9787 23.2256 84.936C23.151 84.888 23.0923 84.7973 23.0496 84.664L22.8896 83.896C22.6763 84.0933 22.4683 84.2693 22.2656 84.424C22.063 84.5733 21.8496 84.7013 21.6256 84.808C21.4016 84.9093 21.1616 84.9867 20.9056 85.04C20.655 85.0987 20.375 85.128 20.0656 85.128C19.751 85.128 19.455 85.0853 19.1776 85C18.9003 84.9093 18.6576 84.776 18.4496 84.6C18.247 84.424 18.0843 84.2027 17.9616 83.936C17.8443 83.664 17.7856 83.344 17.7856 82.976C17.7856 82.656 17.8736 82.3493 18.0496 82.056C18.2256 81.7573 18.511 81.4933 18.9056 81.264C19.3003 81.0347 19.815 80.848 20.4496 80.704C21.0843 80.5547 21.863 80.4693 22.7856 80.448V79.816C22.7856 79.1867 22.6496 78.712 22.3776 78.392C22.1056 78.0667 21.7083 77.904 21.1856 77.904C20.8336 77.904 20.5376 77.9493 20.2976 78.04C20.063 78.1253 19.8576 78.224 19.6816 78.336C19.511 78.4427 19.3616 78.5413 19.2336 78.632C19.111 78.7173 18.9883 78.76 18.8656 78.76C18.7696 78.76 18.687 78.736 18.6176 78.688C18.5483 78.6347 18.4896 78.5707 18.4416 78.496L18.1856 78.04ZM27.8188 73.216V85H26.3947V73.216H27.8188ZM34.848 78.232C34.784 78.3493 34.6853 78.408 34.552 78.408C34.472 78.408 34.3813 78.3787 34.28 78.32C34.1787 78.2613 34.0533 78.1973 33.904 78.128C33.76 78.0533 33.5867 77.9867 33.384 77.928C33.1813 77.864 32.9413 77.832 32.664 77.832C32.424 77.832 32.208 77.864 32.016 77.928C31.824 77.9867 31.6587 78.0693 31.52 78.176C31.3867 78.2827 31.2827 78.408 31.208 78.552C31.1387 78.6907 31.104 78.8427 31.104 79.008C31.104 79.216 31.1627 79.3893 31.28 79.528C31.4027 79.6667 31.5627 79.7867 31.76 79.888C31.9573 79.9893 32.1813 80.08 32.432 80.16C32.6827 80.2347 32.9387 80.3173 33.2 80.408C33.4667 80.4933 33.7253 80.5893 33.976 80.696C34.2267 80.8027 34.4507 80.936 34.648 81.096C34.8453 81.256 35.0027 81.4533 35.12 81.688C35.2427 81.9173 35.304 82.1947 35.304 82.52C35.304 82.8933 35.2373 83.24 35.104 83.56C34.9707 83.8747 34.7733 84.1493 34.512 84.384C34.2507 84.6133 33.9307 84.7947 33.552 84.928C33.1733 85.0613 32.736 85.128 32.24 85.128C31.6747 85.128 31.1627 85.0373 30.704 84.856C30.2453 84.6693 29.856 84.432 29.536 84.144L29.872 83.6C29.9147 83.5307 29.9653 83.4773 30.024 83.44C30.0827 83.4027 30.1573 83.384 30.248 83.384C30.344 83.384 30.4453 83.4213 30.552 83.496C30.6587 83.5707 30.7867 83.6533 30.936 83.744C31.0907 83.8347 31.2773 83.9173 31.496 83.992C31.7147 84.0667 31.9867 84.104 32.312 84.104C32.5893 84.104 32.832 84.0693 33.04 84C33.248 83.9253 33.4213 83.8267 33.56 83.704C33.6987 83.5813 33.8 83.44 33.864 83.28C33.9333 83.12 33.968 82.9493 33.968 82.768C33.968 82.544 33.9067 82.36 33.784 82.216C33.6667 82.0667 33.5093 81.9413 33.312 81.84C33.1147 81.7333 32.888 81.6427 32.632 81.568C32.3813 81.488 32.1227 81.4053 31.856 81.32C31.5947 81.2347 31.336 81.1387 31.08 81.032C30.8293 80.92 30.6053 80.7813 30.408 80.616C30.2107 80.4507 30.0507 80.248 29.928 80.008C29.8107 79.7627 29.752 79.4667 29.752 79.12C29.752 78.8107 29.816 78.5147 29.944 78.232C30.072 77.944 30.2587 77.6933 30.504 77.48C30.7493 77.2613 31.0507 77.088 31.408 76.96C31.7653 76.832 32.1733 76.768 32.632 76.768C33.1653 76.768 33.6427 76.8533 34.064 77.024C34.4907 77.1893 34.8587 77.4187 35.168 77.712L34.848 78.232ZM45.5356 81.352C44.8796 81.3733 44.3196 81.4267 43.8556 81.512C43.397 81.592 43.021 81.6987 42.7276 81.832C42.4396 81.9653 42.229 82.1227 42.0956 82.304C41.9676 82.4853 41.9036 82.688 41.9036 82.912C41.9036 83.1253 41.9383 83.3093 42.0076 83.464C42.077 83.6187 42.1703 83.7467 42.2876 83.848C42.4103 83.944 42.5516 84.016 42.7116 84.064C42.877 84.1067 43.053 84.128 43.2396 84.128C43.4903 84.128 43.7196 84.104 43.9276 84.056C44.1356 84.0027 44.3303 83.928 44.5116 83.832C44.6983 83.736 44.8743 83.6213 45.0396 83.488C45.2103 83.3547 45.3756 83.2027 45.5356 83.032V81.352ZM40.9356 78.04C41.3836 77.608 41.8663 77.2853 42.3836 77.072C42.901 76.8587 43.4743 76.752 44.1036 76.752C44.557 76.752 44.9596 76.8267 45.3116 76.976C45.6636 77.1253 45.9596 77.3333 46.1996 77.6C46.4396 77.8667 46.621 78.1893 46.7436 78.568C46.8663 78.9467 46.9276 79.3627 46.9276 79.816V85H46.2956C46.157 85 46.0503 84.9787 45.9756 84.936C45.901 84.888 45.8423 84.7973 45.7996 84.664L45.6396 83.896C45.4263 84.0933 45.2183 84.2693 45.0156 84.424C44.813 84.5733 44.5996 84.7013 44.3756 84.808C44.1516 84.9093 43.9116 84.9867 43.6556 85.04C43.405 85.0987 43.125 85.128 42.8156 85.128C42.501 85.128 42.205 85.0853 41.9276 85C41.6503 84.9093 41.4076 84.776 41.1996 84.6C40.997 84.424 40.8343 84.2027 40.7116 83.936C40.5943 83.664 40.5356 83.344 40.5356 82.976C40.5356 82.656 40.6236 82.3493 40.7996 82.056C40.9756 81.7573 41.261 81.4933 41.6556 81.264C42.0503 81.0347 42.565 80.848 43.1996 80.704C43.8343 80.5547 44.613 80.4693 45.5356 80.448V79.816C45.5356 79.1867 45.3996 78.712 45.1276 78.392C44.8556 78.0667 44.4583 77.904 43.9356 77.904C43.5836 77.904 43.2876 77.9493 43.0476 78.04C42.813 78.1253 42.6076 78.224 42.4316 78.336C42.261 78.4427 42.1116 78.5413 41.9836 78.632C41.861 78.7173 41.7383 78.76 41.6156 78.76C41.5196 78.76 41.437 78.736 41.3676 78.688C41.2983 78.6347 41.2396 78.5707 41.1916 78.496L40.9356 78.04ZM53.8168 78.232C53.7528 78.3493 53.6541 78.408 53.5208 78.408C53.4408 78.408 53.3501 78.3787 53.2488 78.32C53.1474 78.2613 53.0221 78.1973 52.8728 78.128C52.7288 78.0533 52.5554 77.9867 52.3528 77.928C52.1501 77.864 51.9101 77.832 51.6328 77.832C51.3928 77.832 51.1768 77.864 50.9848 77.928C50.7928 77.9867 50.6274 78.0693 50.4888 78.176C50.3554 78.2827 50.2514 78.408 50.1768 78.552C50.1074 78.6907 50.0728 78.8427 50.0728 79.008C50.0728 79.216 50.1314 79.3893 50.2488 79.528C50.3714 79.6667 50.5314 79.7867 50.7288 79.888C50.9261 79.9893 51.1501 80.08 51.4008 80.16C51.6514 80.2347 51.9074 80.3173 52.1688 80.408C52.4354 80.4933 52.6941 80.5893 52.9448 80.696C53.1954 80.8027 53.4194 80.936 53.6168 81.096C53.8141 81.256 53.9714 81.4533 54.0888 81.688C54.2114 81.9173 54.2728 82.1947 54.2728 82.52C54.2728 82.8933 54.2061 83.24 54.0728 83.56C53.9394 83.8747 53.7421 84.1493 53.4808 84.384C53.2194 84.6133 52.8994 84.7947 52.5208 84.928C52.1421 85.0613 51.7048 85.128 51.2088 85.128C50.6434 85.128 50.1314 85.0373 49.6728 84.856C49.2141 84.6693 48.8248 84.432 48.5048 84.144L48.8408 83.6C48.8834 83.5307 48.9341 83.4773 48.9928 83.44C49.0514 83.4027 49.1261 83.384 49.2168 83.384C49.3128 83.384 49.4141 83.4213 49.5208 83.496C49.6274 83.5707 49.7554 83.6533 49.9048 83.744C50.0594 83.8347 50.2461 83.9173 50.4648 83.992C50.6834 84.0667 50.9554 84.104 51.2808 84.104C51.5581 84.104 51.8008 84.0693 52.0087 84C52.2168 83.9253 52.3901 83.8267 52.5288 83.704C52.6674 83.5813 52.7688 83.44 52.8328 83.28C52.9021 83.12 52.9368 82.9493 52.9368 82.768C52.9368 82.544 52.8754 82.36 52.7528 82.216C52.6354 82.0667 52.4781 81.9413 52.2808 81.84C52.0834 81.7333 51.8568 81.6427 51.6008 81.568C51.3501 81.488 51.0914 81.4053 50.8248 81.32C50.5634 81.2347 50.3048 81.1387 50.0488 81.032C49.7981 80.92 49.5741 80.7813 49.3768 80.616C49.1794 80.4507 49.0194 80.248 48.8968 80.008C48.7794 79.7627 48.7208 79.4667 48.7208 79.12C48.7208 78.8107 48.7848 78.5147 48.9128 78.232C49.0408 77.944 49.2274 77.6933 49.4728 77.48C49.7181 77.2613 50.0194 77.088 50.3768 76.96C50.7341 76.832 51.1421 76.768 51.6008 76.768C52.1341 76.768 52.6114 76.8533 53.0328 77.024C53.4594 77.1893 53.8274 77.4187 54.1368 77.712L53.8168 78.232ZM62.6004 85.128C61.9604 85.128 61.467 84.9493 61.1204 84.592C60.779 84.2347 60.6084 83.72 60.6084 83.048V78.088H59.6324C59.547 78.088 59.475 78.064 59.4164 78.016C59.3577 77.9627 59.3284 77.8827 59.3284 77.776V77.208L60.6564 77.04L60.9844 74.536C61.0004 74.456 61.035 74.392 61.0884 74.344C61.147 74.2907 61.2217 74.264 61.3124 74.264H62.0324V77.056H64.3764V78.088H62.0324V82.952C62.0324 83.2933 62.115 83.5467 62.2804 83.712C62.4457 83.8773 62.659 83.96 62.9204 83.96C63.0697 83.96 63.1977 83.9413 63.3044 83.904C63.4164 83.8613 63.5124 83.816 63.5924 83.768C63.6724 83.72 63.739 83.6773 63.7924 83.64C63.851 83.5973 63.9017 83.576 63.9444 83.576C64.019 83.576 64.0857 83.6213 64.1444 83.712L64.5604 84.392C64.315 84.6213 64.019 84.8027 63.6724 84.936C63.3257 85.064 62.9684 85.128 62.6004 85.128ZM67.2788 77.976C67.6254 77.608 68.0094 77.3147 68.4308 77.096C68.8521 76.8773 69.3374 76.768 69.8868 76.768C70.3294 76.768 70.7188 76.8427 71.0548 76.992C71.3961 77.136 71.6788 77.344 71.9028 77.616C72.1321 77.8827 72.3054 78.2053 72.4228 78.584C72.5401 78.9627 72.5988 79.3813 72.5988 79.84V85H71.1668V79.84C71.1668 79.2267 71.0254 78.752 70.7428 78.416C70.4654 78.0747 70.0414 77.904 69.4708 77.904C69.0494 77.904 68.6548 78.0053 68.2868 78.208C67.9241 78.4107 67.5881 78.6853 67.2788 79.032V85H65.8468V73.216H67.2788V77.976ZM80.1926 80.064C80.1926 79.7333 80.1446 79.432 80.0486 79.16C79.958 78.8827 79.822 78.6453 79.6406 78.448C79.4646 78.2453 79.2486 78.0907 78.9926 77.984C78.7366 77.872 78.446 77.816 78.1206 77.816C77.438 77.816 76.8966 78.016 76.4966 78.416C76.102 78.8107 75.8566 79.36 75.7606 80.064H80.1926ZM81.3446 83.864C81.1686 84.0773 80.958 84.264 80.7126 84.424C80.4673 84.5787 80.2033 84.7067 79.9206 84.808C79.6433 84.9093 79.3553 84.984 79.0566 85.032C78.758 85.0853 78.462 85.112 78.1686 85.112C77.6086 85.112 77.0913 85.0187 76.6166 84.832C76.1473 84.64 75.7393 84.3627 75.3926 84C75.0513 83.632 74.7846 83.1787 74.5926 82.64C74.4006 82.1013 74.3046 81.4827 74.3046 80.784C74.3046 80.2187 74.39 79.6907 74.5606 79.2C74.7366 78.7093 74.9873 78.2853 75.3126 77.928C75.638 77.5653 76.0353 77.2827 76.5046 77.08C76.974 76.872 77.502 76.768 78.0886 76.768C78.574 76.768 79.022 76.8507 79.4326 77.016C79.8486 77.176 80.206 77.4107 80.5046 77.72C80.8086 78.024 81.046 78.4027 81.2166 78.856C81.3873 79.304 81.4726 79.816 81.4726 80.392C81.4726 80.616 81.4486 80.7653 81.4006 80.84C81.3526 80.9147 81.262 80.952 81.1286 80.952H75.7126C75.7286 81.464 75.798 81.9093 75.9206 82.288C76.0486 82.6667 76.2246 82.984 76.4486 83.24C76.6726 83.4907 76.9393 83.68 77.2486 83.808C77.558 83.9307 77.9046 83.992 78.2886 83.992C78.646 83.992 78.9526 83.952 79.2086 83.872C79.47 83.7867 79.694 83.696 79.8806 83.6C80.0673 83.504 80.222 83.416 80.3446 83.336C80.4726 83.2507 80.582 83.208 80.6726 83.208C80.79 83.208 80.8806 83.2533 80.9446 83.344L81.3446 83.864ZM90.0106 76.896L85.4906 87.392C85.4426 87.4987 85.3813 87.584 85.3066 87.648C85.2373 87.712 85.128 87.744 84.9786 87.744H83.9226L85.4026 84.528L82.0586 76.896H83.2906C83.4133 76.896 83.5093 76.928 83.5786 76.992C83.6533 77.0507 83.704 77.1173 83.7306 77.192L85.8986 82.296C85.984 82.52 86.056 82.7547 86.1146 83C86.1893 82.7493 86.2693 82.512 86.3546 82.288L88.4586 77.192C88.4906 77.1067 88.544 77.0373 88.6186 76.984C88.6986 76.9253 88.7866 76.896 88.8826 76.896H90.0106ZM97.7958 81.04C98.0838 81.04 98.3371 81 98.5558 80.92C98.7744 80.84 98.9584 80.728 99.1078 80.584C99.2571 80.44 99.3691 80.2693 99.4438 80.072C99.5184 79.8693 99.5558 79.648 99.5558 79.408C99.5558 78.912 99.4038 78.5173 99.0998 78.224C98.8011 77.9307 98.3664 77.784 97.7958 77.784C97.2198 77.784 96.7798 77.9307 96.4758 78.224C96.1771 78.5173 96.0278 78.912 96.0278 79.408C96.0278 79.648 96.0651 79.8693 96.1398 80.072C96.2198 80.2693 96.3344 80.44 96.4838 80.584C96.6331 80.728 96.8171 80.84 97.0358 80.92C97.2544 81 97.5078 81.04 97.7958 81.04ZM100.364 85.44C100.364 85.2427 100.308 85.0827 100.196 84.96C100.084 84.8373 99.9318 84.7413 99.7398 84.672C99.5531 84.6027 99.3344 84.5547 99.0838 84.528C98.8331 84.496 98.5664 84.472 98.2838 84.456C98.0064 84.44 97.7238 84.424 97.4358 84.408C97.1478 84.392 96.8704 84.3653 96.6038 84.328C96.3051 84.4667 96.0598 84.6427 95.8678 84.856C95.6811 85.064 95.5878 85.3093 95.5878 85.592C95.5878 85.7733 95.6331 85.9413 95.7238 86.096C95.8198 86.256 95.9638 86.392 96.1558 86.504C96.3478 86.6213 96.5878 86.712 96.8758 86.776C97.1691 86.8453 97.5131 86.88 97.9078 86.88C98.2918 86.88 98.6358 86.8453 98.9398 86.776C99.2438 86.7067 99.4998 86.608 99.7078 86.48C99.9211 86.352 100.084 86.2 100.196 86.024C100.308 85.848 100.364 85.6533 100.364 85.44ZM101.812 77.216V77.744C101.812 77.92 101.7 78.032 101.476 78.08L100.556 78.2C100.737 78.552 100.828 78.9413 100.828 79.368C100.828 79.7627 100.75 80.1227 100.596 80.448C100.446 80.768 100.238 81.0427 99.9718 81.272C99.7051 81.5013 99.3851 81.6773 99.0118 81.8C98.6384 81.9227 98.2331 81.984 97.7958 81.984C97.4171 81.984 97.0598 81.9387 96.7238 81.848C96.5531 81.9547 96.4224 82.0693 96.3318 82.192C96.2411 82.3093 96.1957 82.4293 96.1957 82.552C96.1957 82.744 96.2731 82.8907 96.4278 82.992C96.5878 83.088 96.7958 83.1573 97.0518 83.2C97.3078 83.2427 97.5984 83.2693 97.9238 83.28C98.2544 83.2907 98.5904 83.3093 98.9318 83.336C99.2784 83.3573 99.6144 83.3973 99.9398 83.456C100.27 83.5147 100.564 83.6107 100.82 83.744C101.076 83.8773 101.281 84.0613 101.436 84.296C101.596 84.5307 101.676 84.8347 101.676 85.208C101.676 85.5547 101.588 85.8907 101.412 86.216C101.241 86.5413 100.993 86.8293 100.668 87.08C100.342 87.336 99.9424 87.5387 99.4678 87.688C98.9984 87.8427 98.4678 87.92 97.8758 87.92C97.2838 87.92 96.7664 87.8613 96.3238 87.744C95.8811 87.6267 95.5131 87.4693 95.2198 87.272C94.9264 87.0747 94.7051 86.8453 94.5558 86.584C94.4118 86.328 94.3398 86.0587 94.3398 85.776C94.3398 85.376 94.4651 85.0373 94.7158 84.76C94.9664 84.4827 95.3104 84.2613 95.7478 84.096C95.5078 83.9893 95.3158 83.848 95.1718 83.672C95.0331 83.4907 94.9638 83.248 94.9638 82.944C94.9638 82.8267 94.9851 82.7067 95.0278 82.584C95.0704 82.456 95.1344 82.3307 95.2198 82.208C95.3104 82.08 95.4198 81.96 95.5478 81.848C95.6758 81.736 95.8251 81.6373 95.9958 81.552C95.5958 81.328 95.2838 81.032 95.0598 80.664C94.8358 80.2907 94.7238 79.8587 94.7238 79.368C94.7238 78.9733 94.7984 78.616 94.9478 78.296C95.1024 77.9707 95.3158 77.696 95.5878 77.472C95.8598 77.2427 96.1824 77.0667 96.5558 76.944C96.9344 76.8213 97.3478 76.76 97.7958 76.76C98.1478 76.76 98.4758 76.8 98.7798 76.88C99.0838 76.9547 99.3611 77.0667 99.6118 77.216H101.812ZM106.575 76.768C107.167 76.768 107.701 76.8667 108.175 77.064C108.65 77.2613 109.055 77.5413 109.391 77.904C109.727 78.2667 109.983 78.7067 110.159 79.224C110.341 79.736 110.431 80.3093 110.431 80.944C110.431 81.584 110.341 82.16 110.159 82.672C109.983 83.184 109.727 83.6213 109.391 83.984C109.055 84.3467 108.65 84.6267 108.175 84.824C107.701 85.016 107.167 85.112 106.575 85.112C105.978 85.112 105.439 85.016 104.959 84.824C104.485 84.6267 104.079 84.3467 103.743 83.984C103.407 83.6213 103.149 83.184 102.967 82.672C102.791 82.16 102.703 81.584 102.703 80.944C102.703 80.3093 102.791 79.736 102.967 79.224C103.149 78.7067 103.407 78.2667 103.743 77.904C104.079 77.5413 104.485 77.2613 104.959 77.064C105.439 76.8667 105.978 76.768 106.575 76.768ZM106.575 84C107.375 84 107.973 83.7333 108.367 83.2C108.762 82.6613 108.959 81.912 108.959 80.952C108.959 79.9867 108.762 79.2347 108.367 78.696C107.973 78.1573 107.375 77.888 106.575 77.888C106.17 77.888 105.815 77.9573 105.511 78.096C105.213 78.2347 104.962 78.4347 104.759 78.696C104.562 78.9573 104.413 79.28 104.311 79.664C104.215 80.0427 104.167 80.472 104.167 80.952C104.167 81.912 104.365 82.6613 104.759 83.2C105.159 83.7333 105.765 84 106.575 84ZM117.835 76.896V85H116.411V76.896H117.835ZM118.139 74.352C118.139 74.4907 118.11 74.6213 118.051 74.744C117.998 74.8613 117.923 74.968 117.827 75.064C117.736 75.1547 117.627 75.2267 117.499 75.28C117.376 75.3333 117.246 75.36 117.107 75.36C116.968 75.36 116.838 75.3333 116.715 75.28C116.598 75.2267 116.494 75.1547 116.403 75.064C116.312 74.968 116.24 74.8613 116.187 74.744C116.134 74.6213 116.107 74.4907 116.107 74.352C116.107 74.2133 116.134 74.0827 116.187 73.96C116.24 73.832 116.312 73.7227 116.403 73.632C116.494 73.536 116.598 73.4613 116.715 73.408C116.838 73.3547 116.968 73.328 117.107 73.328C117.246 73.328 117.376 73.3547 117.499 73.408C117.627 73.4613 117.736 73.536 117.827 73.632C117.923 73.7227 117.998 73.832 118.051 73.96C118.11 74.0827 118.139 74.2133 118.139 74.352ZM121.519 78.072C121.695 77.8747 121.882 77.696 122.079 77.536C122.276 77.376 122.484 77.24 122.703 77.128C122.927 77.0107 123.162 76.9227 123.407 76.864C123.658 76.8 123.927 76.768 124.215 76.768C124.658 76.768 125.047 76.8427 125.383 76.992C125.724 77.136 126.007 77.344 126.231 77.616C126.46 77.8827 126.634 78.2053 126.751 78.584C126.868 78.9627 126.927 79.3813 126.927 79.84V85H125.495V79.84C125.495 79.2267 125.354 78.752 125.071 78.416C124.794 78.0747 124.37 77.904 123.799 77.904C123.378 77.904 122.983 78.0053 122.615 78.208C122.252 78.4107 121.916 78.6853 121.607 79.032V85H120.175V76.896H121.031C121.234 76.896 121.359 76.9947 121.407 77.192L121.519 78.072ZM144.038 76.896L141.414 85H140.286C140.148 85 140.052 84.9093 139.998 84.728L138.206 79.232C138.164 79.1093 138.129 78.9867 138.102 78.864C138.076 78.736 138.049 78.6107 138.022 78.488C137.996 78.6107 137.969 78.736 137.942 78.864C137.916 78.9867 137.881 79.112 137.838 79.24L136.014 84.728C135.966 84.9093 135.86 85 135.694 85H134.622L131.998 76.896H133.118C133.23 76.896 133.324 76.9253 133.398 76.984C133.478 77.0427 133.532 77.112 133.558 77.192L135.11 82.408C135.201 82.792 135.273 83.1547 135.326 83.496C135.374 83.32 135.422 83.1413 135.47 82.96C135.524 82.7787 135.58 82.5947 135.638 82.408L137.35 77.16C137.377 77.08 137.422 77.0133 137.486 76.96C137.556 76.9067 137.638 76.88 137.734 76.88H138.358C138.465 76.88 138.553 76.9067 138.622 76.96C138.692 77.0133 138.74 77.08 138.766 77.16L140.438 82.408C140.497 82.5947 140.55 82.7787 140.598 82.96C140.646 83.1413 140.692 83.32 140.734 83.496C140.761 83.32 140.793 83.144 140.83 82.968C140.873 82.7867 140.918 82.6 140.966 82.408L142.55 77.192C142.577 77.1067 142.628 77.0373 142.702 76.984C142.777 76.9253 142.865 76.896 142.966 76.896H144.038ZM146.929 76.896V85H145.505V76.896H146.929ZM147.233 74.352C147.233 74.4907 147.204 74.6213 147.145 74.744C147.092 74.8613 147.017 74.968 146.921 75.064C146.83 75.1547 146.721 75.2267 146.593 75.28C146.47 75.3333 146.34 75.36 146.201 75.36C146.062 75.36 145.932 75.3333 145.809 75.28C145.692 75.2267 145.588 75.1547 145.497 75.064C145.406 74.968 145.334 74.8613 145.281 74.744C145.228 74.6213 145.201 74.4907 145.201 74.352C145.201 74.2133 145.228 74.0827 145.281 73.96C145.334 73.832 145.406 73.7227 145.497 73.632C145.588 73.536 145.692 73.4613 145.809 73.408C145.932 73.3547 146.062 73.328 146.201 73.328C146.34 73.328 146.47 73.3547 146.593 73.408C146.721 73.4613 146.83 73.536 146.921 73.632C147.017 73.7227 147.092 73.832 147.145 73.96C147.204 74.0827 147.233 74.2133 147.233 74.352ZM151.757 85.128C151.117 85.128 150.623 84.9493 150.277 84.592C149.935 84.2347 149.765 83.72 149.765 83.048V78.088H148.789C148.703 78.088 148.631 78.064 148.573 78.016C148.514 77.9627 148.485 77.8827 148.485 77.776V77.208L149.813 77.04L150.141 74.536C150.157 74.456 150.191 74.392 150.245 74.344C150.303 74.2907 150.378 74.264 150.469 74.264H151.189V77.056H153.533V78.088H151.189V82.952C151.189 83.2933 151.271 83.5467 151.437 83.712C151.602 83.8773 151.815 83.96 152.077 83.96C152.226 83.96 152.354 83.9413 152.461 83.904C152.573 83.8613 152.669 83.816 152.749 83.768C152.829 83.72 152.895 83.6773 152.949 83.64C153.007 83.5973 153.058 83.576 153.101 83.576C153.175 83.576 153.242 83.6213 153.301 83.712L153.717 84.392C153.471 84.6213 153.175 84.8027 152.829 84.936C152.482 85.064 152.125 85.128 151.757 85.128ZM156.435 77.976C156.782 77.608 157.166 77.3147 157.587 77.096C158.008 76.8773 158.494 76.768 159.043 76.768C159.486 76.768 159.875 76.8427 160.211 76.992C160.552 77.136 160.835 77.344 161.059 77.616C161.288 77.8827 161.462 78.2053 161.579 78.584C161.696 78.9627 161.755 79.3813 161.755 79.84V85H160.323V79.84C160.323 79.2267 160.182 78.752 159.899 78.416C159.622 78.0747 159.198 77.904 158.627 77.904C158.206 77.904 157.811 78.0053 157.443 78.208C157.08 78.4107 156.744 78.6853 156.435 79.032V85H155.003V73.216H156.435V77.976ZM171.435 76.768C172.027 76.768 172.56 76.8667 173.035 77.064C173.509 77.2613 173.915 77.5413 174.251 77.904C174.587 78.2667 174.843 78.7067 175.019 79.224C175.2 79.736 175.291 80.3093 175.291 80.944C175.291 81.584 175.2 82.16 175.019 82.672C174.843 83.184 174.587 83.6213 174.251 83.984C173.915 84.3467 173.509 84.6267 173.035 84.824C172.56 85.016 172.027 85.112 171.435 85.112C170.837 85.112 170.299 85.016 169.819 84.824C169.344 84.6267 168.939 84.3467 168.603 83.984C168.267 83.6213 168.008 83.184 167.827 82.672C167.651 82.16 167.563 81.584 167.563 80.944C167.563 80.3093 167.651 79.736 167.827 79.224C168.008 78.7067 168.267 78.2667 168.603 77.904C168.939 77.5413 169.344 77.2613 169.819 77.064C170.299 76.8667 170.837 76.768 171.435 76.768ZM171.435 84C172.235 84 172.832 83.7333 173.227 83.2C173.621 82.6613 173.819 81.912 173.819 80.952C173.819 79.9867 173.621 79.2347 173.227 78.696C172.832 78.1573 172.235 77.888 171.435 77.888C171.029 77.888 170.675 77.9573 170.371 78.096C170.072 78.2347 169.821 78.4347 169.619 78.696C169.421 78.9573 169.272 79.28 169.171 79.664C169.075 80.0427 169.027 80.472 169.027 80.952C169.027 81.912 169.224 82.6613 169.619 83.2C170.019 83.7333 170.624 84 171.435 84ZM183.761 76.896V85H182.913C182.71 85 182.582 84.9013 182.529 84.704L182.417 83.832C182.065 84.2213 181.67 84.536 181.233 84.776C180.795 85.0107 180.294 85.128 179.729 85.128C179.286 85.128 178.894 85.056 178.553 84.912C178.217 84.7627 177.934 84.5547 177.705 84.288C177.475 84.0213 177.302 83.6987 177.185 83.32C177.073 82.9413 177.017 82.5227 177.017 82.064V76.896H178.441V82.064C178.441 82.6773 178.579 83.152 178.857 83.488C179.139 83.824 179.569 83.992 180.145 83.992C180.566 83.992 180.958 83.8933 181.321 83.696C181.689 83.4933 182.027 83.216 182.337 82.864V76.896H183.761ZM187.371 78.52C187.627 77.9653 187.941 77.5333 188.315 77.224C188.688 76.9093 189.144 76.752 189.683 76.752C189.853 76.752 190.016 76.7707 190.171 76.808C190.331 76.8453 190.472 76.904 190.595 76.984L190.491 78.048C190.459 78.1813 190.379 78.248 190.251 78.248C190.176 78.248 190.067 78.232 189.923 78.2C189.779 78.168 189.616 78.152 189.435 78.152C189.179 78.152 188.949 78.1893 188.747 78.264C188.549 78.3387 188.371 78.4507 188.211 78.6C188.056 78.744 187.915 78.9253 187.787 79.144C187.664 79.3573 187.552 79.6027 187.451 79.88V85H186.019V76.896H186.835C186.989 76.896 187.096 76.9253 187.155 76.984C187.213 77.0427 187.253 77.144 187.275 77.288L187.371 78.52ZM196.941 78.072C197.117 77.8747 197.303 77.696 197.501 77.536C197.698 77.376 197.906 77.24 198.125 77.128C198.349 77.0107 198.583 76.9227 198.829 76.864C199.079 76.8 199.349 76.768 199.637 76.768C200.079 76.768 200.469 76.8427 200.805 76.992C201.146 77.136 201.429 77.344 201.653 77.616C201.882 77.8827 202.055 78.2053 202.173 78.584C202.29 78.9627 202.349 79.3813 202.349 79.84V85H200.917V79.84C200.917 79.2267 200.775 78.752 200.493 78.416C200.215 78.0747 199.791 77.904 199.221 77.904C198.799 77.904 198.405 78.0053 198.037 78.208C197.674 78.4107 197.338 78.6853 197.029 79.032V85H195.597V76.896H196.453C196.655 76.896 196.781 76.9947 196.829 77.192L196.941 78.072ZM209.943 80.064C209.943 79.7333 209.895 79.432 209.799 79.16C209.708 78.8827 209.572 78.6453 209.391 78.448C209.215 78.2453 208.999 78.0907 208.743 77.984C208.487 77.872 208.196 77.816 207.871 77.816C207.188 77.816 206.647 78.016 206.247 78.416C205.852 78.8107 205.607 79.36 205.511 80.064H209.943ZM211.095 83.864C210.919 84.0773 210.708 84.264 210.463 84.424C210.217 84.5787 209.953 84.7067 209.671 84.808C209.393 84.9093 209.105 84.984 208.807 85.032C208.508 85.0853 208.212 85.112 207.919 85.112C207.359 85.112 206.841 85.0187 206.367 84.832C205.897 84.64 205.489 84.3627 205.143 84C204.801 83.632 204.535 83.1787 204.343 82.64C204.151 82.1013 204.055 81.4827 204.055 80.784C204.055 80.2187 204.14 79.6907 204.311 79.2C204.487 78.7093 204.737 78.2853 205.063 77.928C205.388 77.5653 205.785 77.2827 206.255 77.08C206.724 76.872 207.252 76.768 207.839 76.768C208.324 76.768 208.772 76.8507 209.183 77.016C209.599 77.176 209.956 77.4107 210.255 77.72C210.559 78.024 210.796 78.4027 210.967 78.856C211.137 79.304 211.223 79.816 211.223 80.392C211.223 80.616 211.199 80.7653 211.151 80.84C211.103 80.9147 211.012 80.952 210.879 80.952H205.463C205.479 81.464 205.548 81.9093 205.671 82.288C205.799 82.6667 205.975 82.984 206.199 83.24C206.423 83.4907 206.689 83.68 206.999 83.808C207.308 83.9307 207.655 83.992 208.039 83.992C208.396 83.992 208.703 83.952 208.959 83.872C209.22 83.7867 209.444 83.696 209.631 83.6C209.817 83.504 209.972 83.416 210.095 83.336C210.223 83.2507 210.332 83.208 210.423 83.208C210.54 83.208 210.631 83.2533 210.695 83.344L211.095 83.864ZM224.07 76.896L221.446 85H220.318C220.179 85 220.083 84.9093 220.03 84.728L218.238 79.232C218.195 79.1093 218.16 78.9867 218.134 78.864C218.107 78.736 218.08 78.6107 218.054 78.488C218.027 78.6107 218 78.736 217.974 78.864C217.947 78.9867 217.912 79.112 217.87 79.24L216.046 84.728C215.998 84.9093 215.891 85 215.726 85H214.654L212.03 76.896H213.15C213.262 76.896 213.355 76.9253 213.43 76.984C213.51 77.0427 213.563 77.112 213.59 77.192L215.142 82.408C215.232 82.792 215.304 83.1547 215.358 83.496C215.406 83.32 215.454 83.1413 215.502 82.96C215.555 82.7787 215.611 82.5947 215.67 82.408L217.382 77.16C217.408 77.08 217.454 77.0133 217.518 76.96C217.587 76.9067 217.67 76.88 217.766 76.88H218.39C218.496 76.88 218.584 76.9067 218.654 76.96C218.723 77.0133 218.771 77.08 218.798 77.16L220.47 82.408C220.528 82.5947 220.582 82.7787 220.63 82.96C220.678 83.1413 220.723 83.32 220.766 83.496C220.792 83.32 220.824 83.144 220.862 82.968C220.904 82.7867 220.95 82.6 220.998 82.408L222.582 77.192C222.608 77.1067 222.659 77.0373 222.734 76.984C222.808 76.9253 222.896 76.896 222.998 76.896H224.07ZM233.614 81.352C232.958 81.3733 232.398 81.4267 231.934 81.512C231.475 81.592 231.099 81.6987 230.806 81.832C230.518 81.9653 230.307 82.1227 230.174 82.304C230.046 82.4853 229.982 82.688 229.982 82.912C229.982 83.1253 230.016 83.3093 230.086 83.464C230.155 83.6187 230.248 83.7467 230.366 83.848C230.488 83.944 230.63 84.016 230.79 84.064C230.955 84.1067 231.131 84.128 231.318 84.128C231.568 84.128 231.798 84.104 232.006 84.056C232.214 84.0027 232.408 83.928 232.59 83.832C232.776 83.736 232.952 83.6213 233.118 83.488C233.288 83.3547 233.454 83.2027 233.614 83.032V81.352ZM229.014 78.04C229.462 77.608 229.944 77.2853 230.462 77.072C230.979 76.8587 231.552 76.752 232.182 76.752C232.635 76.752 233.038 76.8267 233.39 76.976C233.742 77.1253 234.038 77.3333 234.278 77.6C234.518 77.8667 234.699 78.1893 234.822 78.568C234.944 78.9467 235.006 79.3627 235.006 79.816V85H234.374C234.235 85 234.128 84.9787 234.054 84.936C233.979 84.888 233.92 84.7973 233.878 84.664L233.718 83.896C233.504 84.0933 233.296 84.2693 233.094 84.424C232.891 84.5733 232.678 84.7013 232.454 84.808C232.23 84.9093 231.99 84.9867 231.734 85.04C231.483 85.0987 231.203 85.128 230.894 85.128C230.579 85.128 230.283 85.0853 230.006 85C229.728 84.9093 229.486 84.776 229.278 84.6C229.075 84.424 228.912 84.2027 228.79 83.936C228.672 83.664 228.614 83.344 228.614 82.976C228.614 82.656 228.702 82.3493 228.878 82.056C229.054 81.7573 229.339 81.4933 229.734 81.264C230.128 81.0347 230.643 80.848 231.278 80.704C231.912 80.5547 232.691 80.4693 233.614 80.448V79.816C233.614 79.1867 233.478 78.712 233.206 78.392C232.934 78.0667 232.536 77.904 232.014 77.904C231.662 77.904 231.366 77.9493 231.126 78.04C230.891 78.1253 230.686 78.224 230.51 78.336C230.339 78.4427 230.19 78.5413 230.062 78.632C229.939 78.7173 229.816 78.76 229.694 78.76C229.598 78.76 229.515 78.736 229.446 78.688C229.376 78.6347 229.318 78.5707 229.27 78.496L229.014 78.04ZM238.519 78.072C238.695 77.8747 238.882 77.696 239.079 77.536C239.276 77.376 239.484 77.24 239.703 77.128C239.927 77.0107 240.162 76.9227 240.407 76.864C240.658 76.8 240.927 76.768 241.215 76.768C241.658 76.768 242.047 76.8427 242.383 76.992C242.724 77.136 243.007 77.344 243.231 77.616C243.46 77.8827 243.634 78.2053 243.751 78.584C243.868 78.9627 243.927 79.3813 243.927 79.84V85H242.495V79.84C242.495 79.2267 242.354 78.752 242.071 78.416C241.794 78.0747 241.37 77.904 240.799 77.904C240.378 77.904 239.983 78.0053 239.615 78.208C239.252 78.4107 238.916 78.6853 238.607 79.032V85H237.175V76.896H238.031C238.234 76.896 238.359 76.9947 238.407 77.192L238.519 78.072ZM251.377 78.824C251.11 78.4667 250.822 78.2187 250.513 78.08C250.203 77.936 249.857 77.864 249.473 77.864C248.721 77.864 248.142 78.1333 247.737 78.672C247.331 79.2107 247.129 79.9787 247.129 80.976C247.129 81.504 247.174 81.9573 247.265 82.336C247.355 82.7093 247.489 83.0187 247.665 83.264C247.841 83.504 248.057 83.68 248.313 83.792C248.569 83.904 248.859 83.96 249.185 83.96C249.654 83.96 250.062 83.8533 250.409 83.64C250.761 83.4267 251.083 83.1253 251.377 82.736V78.824ZM252.801 73.216V85H251.953C251.75 85 251.622 84.9013 251.569 84.704L251.441 83.72C251.094 84.136 250.699 84.472 250.257 84.728C249.814 84.984 249.302 85.112 248.721 85.112C248.257 85.112 247.835 85.024 247.457 84.848C247.078 84.6667 246.755 84.4027 246.489 84.056C246.222 83.7093 246.017 83.2773 245.873 82.76C245.729 82.2427 245.657 81.648 245.657 80.976C245.657 80.3787 245.737 79.824 245.897 79.312C246.057 78.7947 246.286 78.3467 246.585 77.968C246.883 77.5893 247.249 77.2933 247.681 77.08C248.118 76.8613 248.609 76.752 249.153 76.752C249.649 76.752 250.073 76.8373 250.425 77.008C250.782 77.1733 251.099 77.4053 251.377 77.704V73.216H252.801ZM2.632 99.896V108H1.208V99.896H2.632ZM2.936 97.352C2.936 97.4907 2.90667 97.6213 2.848 97.744C2.79467 97.8613 2.72 97.968 2.624 98.064C2.53333 98.1547 2.424 98.2267 2.296 98.28C2.17333 98.3333 2.04267 98.36 1.904 98.36C1.76533 98.36 1.63467 98.3333 1.512 98.28C1.39467 98.2267 1.29067 98.1547 1.2 98.064C1.10933 97.968 1.03733 97.8613 0.984 97.744C0.930667 97.6213 0.904 97.4907 0.904 97.352C0.904 97.2133 0.930667 97.0827 0.984 96.96C1.03733 96.832 1.10933 96.7227 1.2 96.632C1.29067 96.536 1.39467 96.4613 1.512 96.408C1.63467 96.3547 1.76533 96.328 1.904 96.328C2.04267 96.328 2.17333 96.3547 2.296 96.408C2.424 96.4613 2.53333 96.536 2.624 96.632C2.72 96.7227 2.79467 96.832 2.848 96.96C2.90667 97.0827 2.936 97.2133 2.936 97.352ZM4.97175 108V99.896H5.82775C6.03042 99.896 6.15575 99.9947 6.20375 100.192L6.30775 101.024C6.60642 100.656 6.94242 100.355 7.31575 100.12C7.68908 99.8853 8.12108 99.768 8.61175 99.768C9.15575 99.768 9.59575 99.92 9.93175 100.224C10.2731 100.528 10.5184 100.939 10.6678 101.456C10.7851 101.163 10.9344 100.909 11.1158 100.696C11.3024 100.483 11.5104 100.307 11.7398 100.168C11.9691 100.029 12.2118 99.928 12.4678 99.864C12.7291 99.8 12.9931 99.768 13.2598 99.768C13.6864 99.768 14.0651 99.8373 14.3958 99.976C14.7318 100.109 15.0144 100.307 15.2438 100.568C15.4784 100.829 15.6571 101.152 15.7798 101.536C15.9024 101.915 15.9638 102.349 15.9638 102.84V108H14.5318V102.84C14.5318 102.205 14.3931 101.725 14.1158 101.4C13.8384 101.069 13.4384 100.904 12.9158 100.904C12.6811 100.904 12.4571 100.947 12.2438 101.032C12.0358 101.112 11.8518 101.232 11.6918 101.392C11.5318 101.552 11.4038 101.755 11.3078 102C11.2171 102.24 11.1718 102.52 11.1718 102.84V108H9.73975V102.84C9.73975 102.189 9.60908 101.704 9.34775 101.384C9.08642 101.064 8.70508 100.904 8.20375 100.904C7.85175 100.904 7.52642 101 7.22775 101.192C6.92908 101.379 6.65442 101.635 6.40375 101.96V108H4.97175ZM19.56 106.048C19.8213 106.4 20.1067 106.648 20.416 106.792C20.7253 106.936 21.072 107.008 21.456 107.008C22.2133 107.008 22.7947 106.739 23.2 106.2C23.6053 105.661 23.808 104.893 23.808 103.896C23.808 103.368 23.76 102.915 23.664 102.536C23.5733 102.157 23.44 101.848 23.264 101.608C23.088 101.363 22.872 101.184 22.616 101.072C22.36 100.96 22.0693 100.904 21.744 100.904C21.28 100.904 20.872 101.011 20.52 101.224C20.1733 101.437 19.8533 101.739 19.56 102.128V106.048ZM19.488 101.152C19.8293 100.731 20.224 100.392 20.672 100.136C21.12 99.88 21.632 99.752 22.208 99.752C22.6773 99.752 23.1013 99.8427 23.48 100.024C23.8587 100.2 24.1813 100.464 24.448 100.816C24.7147 101.163 24.92 101.595 25.064 102.112C25.208 102.629 25.28 103.224 25.28 103.896C25.28 104.493 25.2 105.051 25.04 105.568C24.88 106.08 24.648 106.525 24.344 106.904C24.0453 107.277 23.6773 107.573 23.24 107.792C22.808 108.005 22.32 108.112 21.776 108.112C21.28 108.112 20.8533 108.029 20.496 107.864C20.144 107.693 19.832 107.459 19.56 107.16V110.744H18.128V99.896H18.984C19.1867 99.896 19.312 99.9947 19.36 100.192L19.488 101.152ZM28.4488 101.52C28.7048 100.965 29.0194 100.533 29.3928 100.224C29.7661 99.9093 30.2221 99.752 30.7608 99.752C30.9314 99.752 31.0941 99.7707 31.2488 99.808C31.4088 99.8453 31.5501 99.904 31.6728 99.984L31.5688 101.048C31.5368 101.181 31.4568 101.248 31.3288 101.248C31.2541 101.248 31.1448 101.232 31.0008 101.2C30.8568 101.168 30.6941 101.152 30.5128 101.152C30.2568 101.152 30.0274 101.189 29.8248 101.264C29.6274 101.339 29.4488 101.451 29.2888 101.6C29.1341 101.744 28.9928 101.925 28.8648 102.144C28.7421 102.357 28.6301 102.603 28.5288 102.88V108H27.0968V99.896H27.9128C28.0674 99.896 28.1741 99.9253 28.2328 99.984C28.2914 100.043 28.3314 100.144 28.3528 100.288L28.4488 101.52ZM36.0128 99.768C36.6048 99.768 37.1381 99.8667 37.6128 100.064C38.0874 100.261 38.4928 100.541 38.8288 100.904C39.1648 101.267 39.4208 101.707 39.5968 102.224C39.7781 102.736 39.8688 103.309 39.8688 103.944C39.8688 104.584 39.7781 105.16 39.5968 105.672C39.4208 106.184 39.1648 106.621 38.8288 106.984C38.4928 107.347 38.0874 107.627 37.6128 107.824C37.1381 108.016 36.6048 108.112 36.0128 108.112C35.4154 108.112 34.8768 108.016 34.3968 107.824C33.9221 107.627 33.5168 107.347 33.1808 106.984C32.8448 106.621 32.5861 106.184 32.4048 105.672C32.2288 105.16 32.1408 104.584 32.1408 103.944C32.1408 103.309 32.2288 102.736 32.4048 102.224C32.5861 101.707 32.8448 101.267 33.1808 100.904C33.5168 100.541 33.9221 100.261 34.3968 100.064C34.8768 99.8667 35.4154 99.768 36.0128 99.768ZM36.0128 107C36.8128 107 37.4101 106.733 37.8048 106.2C38.1994 105.661 38.3968 104.912 38.3968 103.952C38.3968 102.987 38.1994 102.235 37.8048 101.696C37.4101 101.157 36.8128 100.888 36.0128 100.888C35.6074 100.888 35.2528 100.957 34.9488 101.096C34.6501 101.235 34.3994 101.435 34.1968 101.696C33.9994 101.957 33.8501 102.28 33.7488 102.664C33.6528 103.043 33.6048 103.472 33.6048 103.952C33.6048 104.912 33.8021 105.661 34.1968 106.2C34.5968 106.733 35.2021 107 36.0128 107ZM48.4001 99.896L45.0961 108H43.8161L40.5121 99.896H41.6721C41.7895 99.896 41.8855 99.9253 41.9601 99.984C42.0348 100.043 42.0855 100.112 42.1121 100.192L44.1681 105.408C44.2321 105.605 44.2881 105.797 44.3361 105.984C44.3841 106.171 44.4295 106.357 44.4721 106.544C44.5148 106.357 44.5601 106.171 44.6081 105.984C44.6561 105.797 44.7148 105.605 44.7841 105.408L46.8641 100.192C46.8961 100.107 46.9495 100.037 47.0241 99.984C47.0988 99.9253 47.1868 99.896 47.2881 99.896H48.4001ZM54.9114 103.064C54.9114 102.733 54.8634 102.432 54.7674 102.16C54.6767 101.883 54.5407 101.645 54.3594 101.448C54.1834 101.245 53.9674 101.091 53.7114 100.984C53.4554 100.872 53.1647 100.816 52.8394 100.816C52.1567 100.816 51.6154 101.016 51.2154 101.416C50.8207 101.811 50.5754 102.36 50.4794 103.064H54.9114ZM56.0634 106.864C55.8874 107.077 55.6767 107.264 55.4314 107.424C55.186 107.579 54.922 107.707 54.6394 107.808C54.362 107.909 54.074 107.984 53.7754 108.032C53.4767 108.085 53.1807 108.112 52.8874 108.112C52.3274 108.112 51.81 108.019 51.3354 107.832C50.866 107.64 50.458 107.363 50.1114 107C49.77 106.632 49.5034 106.179 49.3114 105.64C49.1194 105.101 49.0234 104.483 49.0234 103.784C49.0234 103.219 49.1087 102.691 49.2794 102.2C49.4554 101.709 49.706 101.285 50.0314 100.928C50.3567 100.565 50.754 100.283 51.2234 100.08C51.6927 99.872 52.2207 99.768 52.8074 99.768C53.2927 99.768 53.7407 99.8507 54.1514 100.016C54.5674 100.176 54.9247 100.411 55.2234 100.72C55.5274 101.024 55.7647 101.403 55.9354 101.856C56.106 102.304 56.1914 102.816 56.1914 103.392C56.1914 103.616 56.1674 103.765 56.1194 103.84C56.0714 103.915 55.9807 103.952 55.8474 103.952H50.4314C50.4474 104.464 50.5167 104.909 50.6394 105.288C50.7674 105.667 50.9434 105.984 51.1674 106.24C51.3914 106.491 51.658 106.68 51.9674 106.808C52.2767 106.931 52.6234 106.992 53.0074 106.992C53.3647 106.992 53.6714 106.952 53.9274 106.872C54.1887 106.787 54.4127 106.696 54.5994 106.6C54.786 106.504 54.9407 106.416 55.0634 106.336C55.1914 106.251 55.3007 106.208 55.3914 106.208C55.5087 106.208 55.5994 106.253 55.6634 106.344L56.0634 106.864ZM63.2205 101.824C62.9538 101.467 62.6658 101.219 62.3565 101.08C62.0472 100.936 61.7005 100.864 61.3165 100.864C60.5645 100.864 59.9858 101.133 59.5805 101.672C59.1752 102.211 58.9725 102.979 58.9725 103.976C58.9725 104.504 59.0178 104.957 59.1085 105.336C59.1992 105.709 59.3325 106.019 59.5085 106.264C59.6845 106.504 59.9005 106.68 60.1565 106.792C60.4125 106.904 60.7032 106.96 61.0285 106.96C61.4978 106.96 61.9058 106.853 62.2525 106.64C62.6045 106.427 62.9272 106.125 63.2205 105.736V101.824ZM64.6445 96.216V108H63.7965C63.5938 108 63.4658 107.901 63.4125 107.704L63.2845 106.72C62.9378 107.136 62.5432 107.472 62.1005 107.728C61.6578 107.984 61.1458 108.112 60.5645 108.112C60.1005 108.112 59.6792 108.024 59.3005 107.848C58.9218 107.667 58.5992 107.403 58.3325 107.056C58.0658 106.709 57.8605 106.277 57.7165 105.76C57.5725 105.243 57.5005 104.648 57.5005 103.976C57.5005 103.379 57.5805 102.824 57.7405 102.312C57.9005 101.795 58.1298 101.347 58.4285 100.968C58.7272 100.589 59.0925 100.293 59.5245 100.08C59.9618 99.8613 60.4525 99.752 60.9965 99.752C61.4925 99.752 61.9165 99.8373 62.2685 100.008C62.6258 100.173 62.9432 100.405 63.2205 100.704V96.216H64.6445ZM80.0653 96.536L75.3933 108H74.0013L69.3293 96.536H70.5693C70.7079 96.536 70.8199 96.5707 70.9053 96.64C70.9906 96.7093 71.0546 96.7973 71.0973 96.904L74.3293 104.992C74.3986 105.173 74.4653 105.371 74.5293 105.584C74.5986 105.797 74.6599 106.021 74.7133 106.256C74.7666 106.021 74.8226 105.797 74.8813 105.584C74.9399 105.371 75.0039 105.173 75.0733 104.992L78.2973 96.904C78.3293 96.8133 78.3906 96.7307 78.4813 96.656C78.5773 96.576 78.6919 96.536 78.8253 96.536H80.0653ZM82.7414 99.896V108H81.3174V99.896H82.7414ZM83.0454 97.352C83.0454 97.4907 83.016 97.6213 82.9574 97.744C82.904 97.8613 82.8294 97.968 82.7334 98.064C82.6427 98.1547 82.5334 98.2267 82.4054 98.28C82.2827 98.3333 82.152 98.36 82.0134 98.36C81.8747 98.36 81.744 98.3333 81.6214 98.28C81.504 98.2267 81.4 98.1547 81.3094 98.064C81.2187 97.968 81.1467 97.8613 81.0934 97.744C81.04 97.6213 81.0134 97.4907 81.0134 97.352C81.0134 97.2133 81.04 97.0827 81.0934 96.96C81.1467 96.832 81.2187 96.7227 81.3094 96.632C81.4 96.536 81.504 96.4613 81.6214 96.408C81.744 96.3547 81.8747 96.328 82.0134 96.328C82.152 96.328 82.2827 96.3547 82.4054 96.408C82.5334 96.4613 82.6427 96.536 82.7334 96.632C82.8294 96.7227 82.904 96.832 82.9574 96.96C83.016 97.0827 83.0454 97.2133 83.0454 97.352ZM90.3611 101.824C90.0945 101.467 89.8065 101.219 89.4971 101.08C89.1878 100.936 88.8411 100.864 88.4571 100.864C87.7051 100.864 87.1265 101.133 86.7211 101.672C86.3158 102.211 86.1131 102.979 86.1131 103.976C86.1131 104.504 86.1585 104.957 86.2491 105.336C86.3398 105.709 86.4731 106.019 86.6491 106.264C86.8251 106.504 87.0411 106.68 87.2971 106.792C87.5531 106.904 87.8438 106.96 88.1691 106.96C88.6385 106.96 89.0465 106.853 89.3931 106.64C89.7451 106.427 90.0678 106.125 90.3611 105.736V101.824ZM91.7851 96.216V108H90.9371C90.7345 108 90.6065 107.901 90.5531 107.704L90.4251 106.72C90.0785 107.136 89.6838 107.472 89.2411 107.728C88.7985 107.984 88.2865 108.112 87.7051 108.112C87.2411 108.112 86.8198 108.024 86.4411 107.848C86.0625 107.667 85.7398 107.403 85.4731 107.056C85.2065 106.709 85.0011 106.277 84.8571 105.76C84.7131 105.243 84.6411 104.648 84.6411 103.976C84.6411 103.379 84.7211 102.824 84.8811 102.312C85.0411 101.795 85.2705 101.347 85.5691 100.968C85.8678 100.589 86.2331 100.293 86.6651 100.08C87.1025 99.8613 87.5931 99.752 88.1371 99.752C88.6331 99.752 89.0571 99.8373 89.4091 100.008C89.7665 100.173 90.0838 100.405 90.3611 100.704V96.216H91.7851ZM95.5383 99.896V108H94.1143V99.896H95.5383ZM95.8423 97.352C95.8423 97.4907 95.8129 97.6213 95.7543 97.744C95.7009 97.8613 95.6263 97.968 95.5303 98.064C95.4396 98.1547 95.3303 98.2267 95.2023 98.28C95.0796 98.3333 94.9489 98.36 94.8103 98.36C94.6716 98.36 94.5409 98.3333 94.4183 98.28C94.3009 98.2267 94.1969 98.1547 94.1063 98.064C94.0156 97.968 93.9436 97.8613 93.8903 97.744C93.8369 97.6213 93.8103 97.4907 93.8103 97.352C93.8103 97.2133 93.8369 97.0827 93.8903 96.96C93.9436 96.832 94.0156 96.7227 94.1063 96.632C94.1969 96.536 94.3009 96.4613 94.4183 96.408C94.5409 96.3547 94.6716 96.328 94.8103 96.328C94.9489 96.328 95.0796 96.3547 95.2023 96.408C95.3303 96.4613 95.4396 96.536 95.5303 96.632C95.6263 96.7227 95.7009 96.832 95.7543 96.96C95.8129 97.0827 95.8423 97.2133 95.8423 97.352ZM99.31 106.048C99.5713 106.4 99.8567 106.648 100.166 106.792C100.475 106.936 100.822 107.008 101.206 107.008C101.963 107.008 102.545 106.739 102.95 106.2C103.355 105.661 103.558 104.893 103.558 103.896C103.558 103.368 103.51 102.915 103.414 102.536C103.323 102.157 103.19 101.848 103.014 101.608C102.838 101.363 102.622 101.184 102.366 101.072C102.11 100.96 101.819 100.904 101.494 100.904C101.03 100.904 100.622 101.011 100.27 101.224C99.9233 101.437 99.6033 101.739 99.31 102.128V106.048ZM99.238 101.152C99.5793 100.731 99.974 100.392 100.422 100.136C100.87 99.88 101.382 99.752 101.958 99.752C102.427 99.752 102.851 99.8427 103.23 100.024C103.609 100.2 103.931 100.464 104.198 100.816C104.465 101.163 104.67 101.595 104.814 102.112C104.958 102.629 105.03 103.224 105.03 103.896C105.03 104.493 104.95 105.051 104.79 105.568C104.63 106.08 104.398 106.525 104.094 106.904C103.795 107.277 103.427 107.573 102.99 107.792C102.558 108.005 102.07 108.112 101.526 108.112C101.03 108.112 100.603 108.029 100.246 107.864C99.894 107.693 99.582 107.459 99.31 107.16V110.744H97.878V99.896H98.734C98.9367 99.896 99.062 99.9947 99.11 100.192L99.238 101.152ZM108.199 101.52C108.455 100.965 108.769 100.533 109.143 100.224C109.516 99.9093 109.972 99.752 110.511 99.752C110.681 99.752 110.844 99.7707 110.999 99.808C111.159 99.8453 111.3 99.904 111.423 99.984L111.319 101.048C111.287 101.181 111.207 101.248 111.079 101.248C111.004 101.248 110.895 101.232 110.751 101.2C110.607 101.168 110.444 101.152 110.263 101.152C110.007 101.152 109.777 101.189 109.575 101.264C109.377 101.339 109.199 101.451 109.039 101.6C108.884 101.744 108.743 101.925 108.615 102.144C108.492 102.357 108.38 102.603 108.279 102.88V108H106.847V99.896H107.663C107.817 99.896 107.924 99.9253 107.983 99.984C108.041 100.043 108.081 100.144 108.103 100.288L108.199 101.52ZM114.179 99.896V108H112.755V99.896H114.179ZM114.483 97.352C114.483 97.4907 114.454 97.6213 114.395 97.744C114.342 97.8613 114.267 97.968 114.171 98.064C114.08 98.1547 113.971 98.2267 113.843 98.28C113.72 98.3333 113.59 98.36 113.451 98.36C113.312 98.36 113.182 98.3333 113.059 98.28C112.942 98.2267 112.838 98.1547 112.747 98.064C112.656 97.968 112.584 97.8613 112.531 97.744C112.478 97.6213 112.451 97.4907 112.451 97.352C112.451 97.2133 112.478 97.0827 112.531 96.96C112.584 96.832 112.656 96.7227 112.747 96.632C112.838 96.536 112.942 96.4613 113.059 96.408C113.182 96.3547 113.312 96.328 113.451 96.328C113.59 96.328 113.72 96.3547 113.843 96.408C113.971 96.4613 114.08 96.536 114.171 96.632C114.267 96.7227 114.342 96.832 114.395 96.96C114.454 97.0827 114.483 97.2133 114.483 97.352ZM117.863 101.072C118.039 100.875 118.225 100.696 118.423 100.536C118.62 100.376 118.828 100.24 119.047 100.128C119.271 100.011 119.505 99.9227 119.751 99.864C120.001 99.8 120.271 99.768 120.559 99.768C121.001 99.768 121.391 99.8427 121.727 99.992C122.068 100.136 122.351 100.344 122.575 100.616C122.804 100.883 122.977 101.205 123.095 101.584C123.212 101.963 123.271 102.381 123.271 102.84V108H121.839V102.84C121.839 102.227 121.697 101.752 121.415 101.416C121.137 101.075 120.713 100.904 120.143 100.904C119.721 100.904 119.327 101.005 118.959 101.208C118.596 101.411 118.26 101.685 117.951 102.032V108H116.519V99.896H117.375C117.577 99.896 117.703 99.9947 117.751 100.192L117.863 101.072ZM127.819 108.128C127.179 108.128 126.686 107.949 126.339 107.592C125.998 107.235 125.827 106.72 125.827 106.048V101.088H124.851C124.766 101.088 124.694 101.064 124.635 101.016C124.576 100.963 124.547 100.883 124.547 100.776V100.208L125.875 100.04L126.203 97.536C126.219 97.456 126.254 97.392 126.307 97.344C126.366 97.2907 126.44 97.264 126.531 97.264H127.251V100.056H129.595V101.088H127.251V105.952C127.251 106.293 127.334 106.547 127.499 106.712C127.664 106.877 127.878 106.96 128.139 106.96C128.288 106.96 128.416 106.941 128.523 106.904C128.635 106.861 128.731 106.816 128.811 106.768C128.891 106.72 128.958 106.677 129.011 106.64C129.07 106.597 129.12 106.576 129.163 106.576C129.238 106.576 129.304 106.621 129.363 106.712L129.779 107.392C129.534 107.621 129.238 107.803 128.891 107.936C128.544 108.064 128.187 108.128 127.819 108.128ZM136.443 103.064C136.443 102.733 136.395 102.432 136.299 102.16C136.208 101.883 136.072 101.645 135.891 101.448C135.715 101.245 135.499 101.091 135.243 100.984C134.987 100.872 134.696 100.816 134.371 100.816C133.688 100.816 133.147 101.016 132.747 101.416C132.352 101.811 132.107 102.36 132.011 103.064H136.443ZM137.595 106.864C137.419 107.077 137.208 107.264 136.963 107.424C136.717 107.579 136.453 107.707 136.171 107.808C135.893 107.909 135.605 107.984 135.307 108.032C135.008 108.085 134.712 108.112 134.419 108.112C133.859 108.112 133.341 108.019 132.867 107.832C132.397 107.64 131.989 107.363 131.643 107C131.301 106.632 131.035 106.179 130.843 105.64C130.651 105.101 130.555 104.483 130.555 103.784C130.555 103.219 130.64 102.691 130.811 102.2C130.987 101.709 131.237 101.285 131.563 100.928C131.888 100.565 132.285 100.283 132.755 100.08C133.224 99.872 133.752 99.768 134.339 99.768C134.824 99.768 135.272 99.8507 135.683 100.016C136.099 100.176 136.456 100.411 136.755 100.72C137.059 101.024 137.296 101.403 137.467 101.856C137.637 102.304 137.723 102.816 137.723 103.392C137.723 103.616 137.699 103.765 137.651 103.84C137.603 103.915 137.512 103.952 137.379 103.952H131.963C131.979 104.464 132.048 104.909 132.171 105.288C132.299 105.667 132.475 105.984 132.699 106.24C132.923 106.491 133.189 106.68 133.499 106.808C133.808 106.931 134.155 106.992 134.539 106.992C134.896 106.992 135.203 106.952 135.459 106.872C135.72 106.787 135.944 106.696 136.131 106.6C136.317 106.504 136.472 106.416 136.595 106.336C136.723 106.251 136.832 106.208 136.923 106.208C137.04 106.208 137.131 106.253 137.195 106.344L137.595 106.864ZM140.824 101.52C141.08 100.965 141.394 100.533 141.768 100.224C142.141 99.9093 142.597 99.752 143.136 99.752C143.306 99.752 143.469 99.7707 143.624 99.808C143.784 99.8453 143.925 99.904 144.048 99.984L143.944 101.048C143.912 101.181 143.832 101.248 143.704 101.248C143.629 101.248 143.52 101.232 143.376 101.2C143.232 101.168 143.069 101.152 142.888 101.152C142.632 101.152 142.402 101.189 142.2 101.264C142.002 101.339 141.824 101.451 141.664 101.6C141.509 101.744 141.368 101.925 141.24 102.144C141.117 102.357 141.005 102.603 140.904 102.88V108H139.472V99.896H140.288C140.442 99.896 140.549 99.9253 140.608 99.984C140.666 100.043 140.706 100.144 140.728 100.288L140.824 101.52Z" fill="white"/>
<path d="M30 1.68341L13.3333 1.66675C11.5 1.66675 10 3.16675 10 5.00008V10.0001H13.3333V8.33342H30V31.6667H13.3333V30.0001H10V35.0001C10 36.8334 11.5 38.3334 13.3333 38.3334H30C31.8333 38.3334 33.3333 36.8334 33.3333 35.0001V5.00008C33.3333 3.16675 31.8333 1.68341 30 1.68341ZM16.6667 25.0001H20V13.3334H8.33333V16.6667H14.3167L5 25.9834L7.35 28.3334L16.6667 19.0167V25.0001Z" fill="white"/>
</svg>
