<svg width="311" height="93" viewBox="0 0 311 93" fill="none" xmlns="http://www.w3.org/2000/svg">
<path d="M1.672 57.24C1.672 56.8293 1.74933 56.4427 1.904 56.08C2.064 55.7173 2.27733 55.4027 2.544 55.136C2.81067 54.864 3.12267 54.6507 3.48 54.496C3.84267 54.336 4.22667 54.256 4.632 54.256C5.04267 54.256 5.42667 54.336 5.784 54.496C6.14667 54.6507 6.46133 54.864 6.728 55.136C7 55.4027 7.21333 55.7173 7.368 56.08C7.528 56.4427 7.608 56.8293 7.608 57.24C7.608 57.6507 7.528 58.0373 7.368 58.4C7.21333 58.7573 7 59.0693 6.728 59.336C6.46133 59.6027 6.14667 59.816 5.784 59.976C5.42667 60.1307 5.04267 60.208 4.632 60.208C4.22667 60.208 3.84267 60.1307 3.48 59.976C3.12267 59.816 2.81067 59.6027 2.544 59.336C2.27733 59.0693 2.064 58.7573 1.904 58.4C1.74933 58.0373 1.672 57.6507 1.672 57.24ZM26.767 50.536V62H25.407V53.576C25.407 53.464 25.4097 53.344 25.415 53.216C25.4257 53.088 25.4363 52.9573 25.447 52.824L21.511 59.992C21.3883 60.232 21.2017 60.352 20.951 60.352H20.727C20.4763 60.352 20.2897 60.232 20.167 59.992L16.151 52.792C16.183 53.0747 16.199 53.336 16.199 53.576V62H14.839V50.536H15.983C16.1217 50.536 16.2283 50.5493 16.303 50.576C16.3777 50.6027 16.4497 50.6773 16.519 50.8L20.479 57.856C20.543 57.984 20.6043 58.1173 20.663 58.256C20.727 58.3947 20.7857 58.536 20.839 58.68C20.8923 58.536 20.9483 58.3947 21.007 58.256C21.0657 58.112 21.1297 57.976 21.199 57.848L25.087 50.8C25.151 50.6773 25.2203 50.6027 25.295 50.576C25.375 50.5493 25.4843 50.536 25.623 50.536H26.767ZM33.52 58.352C32.864 58.3733 32.304 58.4267 31.84 58.512C31.3813 58.592 31.0053 58.6987 30.712 58.832C30.424 58.9653 30.2133 59.1227 30.08 59.304C29.952 59.4853 29.888 59.688 29.888 59.912C29.888 60.1253 29.9227 60.3093 29.992 60.464C30.0613 60.6187 30.1547 60.7467 30.272 60.848C30.3947 60.944 30.536 61.016 30.696 61.064C30.8613 61.1067 31.0373 61.128 31.224 61.128C31.4747 61.128 31.704 61.104 31.912 61.056C32.12 61.0027 32.3147 60.928 32.496 60.832C32.6827 60.736 32.8587 60.6213 33.024 60.488C33.1947 60.3547 33.36 60.2027 33.52 60.032V58.352ZM28.92 55.04C29.368 54.608 29.8507 54.2853 30.368 54.072C30.8853 53.8587 31.4587 53.752 32.088 53.752C32.5413 53.752 32.944 53.8267 33.296 53.976C33.648 54.1253 33.944 54.3333 34.184 54.6C34.424 54.8667 34.6053 55.1893 34.728 55.568C34.8507 55.9467 34.912 56.3627 34.912 56.816V62H34.28C34.1413 62 34.0347 61.9787 33.96 61.936C33.8853 61.888 33.8267 61.7973 33.784 61.664L33.624 60.896C33.4107 61.0933 33.2027 61.2693 33 61.424C32.7973 61.5733 32.584 61.7013 32.36 61.808C32.136 61.9093 31.896 61.9867 31.64 62.04C31.3893 62.0987 31.1093 62.128 30.8 62.128C30.4853 62.128 30.1893 62.0853 29.912 62C29.6347 61.9093 29.392 61.776 29.184 61.6C28.9813 61.424 28.8187 61.2027 28.696 60.936C28.5787 60.664 28.52 60.344 28.52 59.976C28.52 59.656 28.608 59.3493 28.784 59.056C28.96 58.7573 29.2453 58.4933 29.64 58.264C30.0347 58.0347 30.5493 57.848 31.184 57.704C31.8187 57.5547 32.5973 57.4693 33.52 57.448V56.816C33.52 56.1867 33.384 55.712 33.112 55.392C32.84 55.0667 32.4427 54.904 31.92 54.904C31.568 54.904 31.272 54.9493 31.032 55.04C30.7973 55.1253 30.592 55.224 30.416 55.336C30.2453 55.4427 30.096 55.5413 29.968 55.632C29.8453 55.7173 29.7227 55.76 29.6 55.76C29.504 55.76 29.4213 55.736 29.352 55.688C29.2827 55.6347 29.224 55.5707 29.176 55.496L28.92 55.04ZM39.4598 62.128C38.8198 62.128 38.3264 61.9493 37.9798 61.592C37.6384 61.2347 37.4678 60.72 37.4678 60.048V55.088H36.4918C36.4064 55.088 36.3344 55.064 36.2758 55.016C36.2171 54.9627 36.1878 54.8827 36.1878 54.776V54.208L37.5158 54.04L37.8438 51.536C37.8598 51.456 37.8944 51.392 37.9478 51.344C38.0064 51.2907 38.0811 51.264 38.1718 51.264H38.8918V54.056H41.2358V55.088H38.8918V59.952C38.8918 60.2933 38.9744 60.5467 39.1398 60.712C39.3051 60.8773 39.5184 60.96 39.7798 60.96C39.9291 60.96 40.0571 60.9413 40.1638 60.904C40.2758 60.8613 40.3718 60.816 40.4518 60.768C40.5318 60.72 40.5984 60.6773 40.6518 60.64C40.7104 60.5973 40.7611 60.576 40.8038 60.576C40.8784 60.576 40.9451 60.6213 41.0038 60.712L41.4198 61.392C41.1744 61.6213 40.8784 61.8027 40.5318 61.936C40.1851 62.064 39.8278 62.128 39.4598 62.128ZM48.2993 55.336C48.2566 55.3947 48.2139 55.44 48.1713 55.472C48.1286 55.504 48.0699 55.52 47.9953 55.52C47.9153 55.52 47.8273 55.488 47.7313 55.424C47.6353 55.3547 47.5153 55.28 47.3713 55.2C47.2326 55.12 47.0593 55.048 46.8513 54.984C46.6486 54.9147 46.3979 54.88 46.0993 54.88C45.6993 54.88 45.3473 54.952 45.0433 55.096C44.7393 55.2347 44.4833 55.4373 44.2753 55.704C44.0726 55.9707 43.9179 56.2933 43.8113 56.672C43.7099 57.0507 43.6593 57.4747 43.6593 57.944C43.6593 58.4347 43.7153 58.872 43.8273 59.256C43.9393 59.6347 44.0966 59.9547 44.2993 60.216C44.5073 60.472 44.7553 60.6693 45.0433 60.808C45.3366 60.9413 45.6646 61.008 46.0273 61.008C46.3739 61.008 46.6593 60.968 46.8833 60.888C47.1073 60.8027 47.2913 60.7093 47.4353 60.608C47.5846 60.5067 47.7073 60.416 47.8033 60.336C47.9046 60.2507 48.0033 60.208 48.0993 60.208C48.2166 60.208 48.3073 60.2533 48.3713 60.344L48.7713 60.864C48.5953 61.0827 48.3953 61.2693 48.1713 61.424C47.9473 61.5787 47.7046 61.7093 47.4433 61.816C47.1873 61.9173 46.9179 61.992 46.6353 62.04C46.3526 62.088 46.0646 62.112 45.7713 62.112C45.2646 62.112 44.7926 62.0187 44.3553 61.832C43.9233 61.6453 43.5473 61.376 43.2273 61.024C42.9073 60.6667 42.6566 60.2293 42.4753 59.712C42.2939 59.1947 42.2033 58.6053 42.2033 57.944C42.2033 57.3413 42.2859 56.784 42.4513 56.272C42.6219 55.76 42.8673 55.32 43.1873 54.952C43.5126 54.5787 43.9099 54.288 44.3793 54.08C44.8539 53.872 45.3979 53.768 46.0113 53.768C46.5819 53.768 47.0833 53.8613 47.5153 54.048C47.9526 54.2293 48.3393 54.488 48.6753 54.824L48.2993 55.336ZM51.7319 54.976C52.0785 54.608 52.4625 54.3147 52.8839 54.096C53.3052 53.8773 53.7905 53.768 54.3399 53.768C54.7825 53.768 55.1719 53.8427 55.5079 53.992C55.8492 54.136 56.1319 54.344 56.3559 54.616C56.5852 54.8827 56.7585 55.2053 56.8759 55.584C56.9932 55.9627 57.0519 56.3813 57.0519 56.84V62H55.6199V56.84C55.6199 56.2267 55.4785 55.752 55.1959 55.416C54.9185 55.0747 54.4945 54.904 53.9239 54.904C53.5025 54.904 53.1079 55.0053 52.7399 55.208C52.3772 55.4107 52.0412 55.6853 51.7319 56.032V62H50.2999V50.216H51.7319V54.976ZM64.6675 55.52C64.9235 54.9653 65.2382 54.5333 65.6115 54.224C65.9848 53.9093 66.4408 53.752 66.9795 53.752C67.1502 53.752 67.3128 53.7707 67.4675 53.808C67.6275 53.8453 67.7688 53.904 67.8915 53.984L67.7875 55.048C67.7555 55.1813 67.6755 55.248 67.5475 55.248C67.4728 55.248 67.3635 55.232 67.2195 55.2C67.0755 55.168 66.9128 55.152 66.7315 55.152C66.4755 55.152 66.2462 55.1893 66.0435 55.264C65.8462 55.3387 65.6675 55.4507 65.5075 55.6C65.3528 55.744 65.2115 55.9253 65.0835 56.144C64.9608 56.3573 64.8488 56.6027 64.7475 56.88V62H63.3155V53.896H64.1315C64.2862 53.896 64.3928 53.9253 64.4515 53.984C64.5102 54.0427 64.5502 54.144 64.5715 54.288L64.6675 55.52ZM74.2395 57.064C74.2395 56.7333 74.1915 56.432 74.0955 56.16C74.0048 55.8827 73.8688 55.6453 73.6875 55.448C73.5115 55.2453 73.2955 55.0907 73.0395 54.984C72.7835 54.872 72.4928 54.816 72.1675 54.816C71.4848 54.816 70.9435 55.016 70.5435 55.416C70.1488 55.8107 69.9035 56.36 69.8075 57.064H74.2395ZM75.3915 60.864C75.2155 61.0773 75.0048 61.264 74.7595 61.424C74.5142 61.5787 74.2502 61.7067 73.9675 61.808C73.6902 61.9093 73.4022 61.984 73.1035 62.032C72.8048 62.0853 72.5088 62.112 72.2155 62.112C71.6555 62.112 71.1382 62.0187 70.6635 61.832C70.1942 61.64 69.7862 61.3627 69.4395 61C69.0982 60.632 68.8315 60.1787 68.6395 59.64C68.4475 59.1013 68.3515 58.4827 68.3515 57.784C68.3515 57.2187 68.4368 56.6907 68.6075 56.2C68.7835 55.7093 69.0342 55.2853 69.3595 54.928C69.6848 54.5653 70.0822 54.2827 70.5515 54.08C71.0208 53.872 71.5488 53.768 72.1355 53.768C72.6208 53.768 73.0688 53.8507 73.4795 54.016C73.8955 54.176 74.2528 54.4107 74.5515 54.72C74.8555 55.024 75.0928 55.4027 75.2635 55.856C75.4342 56.304 75.5195 56.816 75.5195 57.392C75.5195 57.616 75.4955 57.7653 75.4475 57.84C75.3995 57.9147 75.3088 57.952 75.1755 57.952H69.7595C69.7755 58.464 69.8448 58.9093 69.9675 59.288C70.0955 59.6667 70.2715 59.984 70.4955 60.24C70.7195 60.4907 70.9862 60.68 71.2955 60.808C71.6048 60.9307 71.9515 60.992 72.3355 60.992C72.6928 60.992 72.9995 60.952 73.2555 60.872C73.5168 60.7867 73.7408 60.696 73.9275 60.6C74.1142 60.504 74.2688 60.416 74.3915 60.336C74.5195 60.2507 74.6288 60.208 74.7195 60.208C74.8368 60.208 74.9275 60.2533 74.9915 60.344L75.3915 60.864ZM78.7006 60.048C78.962 60.4 79.2473 60.648 79.5566 60.792C79.866 60.936 80.2126 61.008 80.5966 61.008C81.354 61.008 81.9353 60.7387 82.3406 60.2C82.746 59.6613 82.9486 58.8933 82.9486 57.896C82.9486 57.368 82.9006 56.9147 82.8046 56.536C82.714 56.1573 82.5806 55.848 82.4046 55.608C82.2286 55.3627 82.0126 55.184 81.7566 55.072C81.5006 54.96 81.21 54.904 80.8846 54.904C80.4206 54.904 80.0126 55.0107 79.6606 55.224C79.314 55.4373 78.994 55.7387 78.7006 56.128V60.048ZM78.6286 55.152C78.97 54.7307 79.3646 54.392 79.8126 54.136C80.2606 53.88 80.7726 53.752 81.3486 53.752C81.818 53.752 82.242 53.8427 82.6206 54.024C82.9993 54.2 83.322 54.464 83.5886 54.816C83.8553 55.1627 84.0606 55.5947 84.2046 56.112C84.3486 56.6293 84.4206 57.224 84.4206 57.896C84.4206 58.4933 84.3406 59.0507 84.1806 59.568C84.0206 60.08 83.7886 60.5253 83.4846 60.904C83.186 61.2773 82.818 61.5733 82.3806 61.792C81.9486 62.0053 81.4606 62.112 80.9166 62.112C80.4206 62.112 79.994 62.0293 79.6366 61.864C79.2846 61.6933 78.9726 61.4587 78.7006 61.16V64.744H77.2686V53.896H78.1246C78.3273 53.896 78.4526 53.9947 78.5006 54.192L78.6286 55.152ZM89.6534 53.768C90.2454 53.768 90.7787 53.8667 91.2534 54.064C91.728 54.2613 92.1334 54.5413 92.4694 54.904C92.8054 55.2667 93.0614 55.7067 93.2374 56.224C93.4187 56.736 93.5094 57.3093 93.5094 57.944C93.5094 58.584 93.4187 59.16 93.2374 59.672C93.0614 60.184 92.8054 60.6213 92.4694 60.984C92.1334 61.3467 91.728 61.6267 91.2534 61.824C90.7787 62.016 90.2454 62.112 89.6534 62.112C89.056 62.112 88.5174 62.016 88.0374 61.824C87.5627 61.6267 87.1574 61.3467 86.8214 60.984C86.4854 60.6213 86.2267 60.184 86.0454 59.672C85.8694 59.16 85.7814 58.584 85.7814 57.944C85.7814 57.3093 85.8694 56.736 86.0454 56.224C86.2267 55.7067 86.4854 55.2667 86.8214 54.904C87.1574 54.5413 87.5627 54.2613 88.0374 54.064C88.5174 53.8667 89.056 53.768 89.6534 53.768ZM89.6534 61C90.4534 61 91.0507 60.7333 91.4454 60.2C91.84 59.6613 92.0374 58.912 92.0374 57.952C92.0374 56.9867 91.84 56.2347 91.4454 55.696C91.0507 55.1573 90.4534 54.888 89.6534 54.888C89.248 54.888 88.8934 54.9573 88.5894 55.096C88.2907 55.2347 88.04 55.4347 87.8374 55.696C87.64 55.9573 87.4907 56.28 87.3894 56.664C87.2934 57.0427 87.2454 57.472 87.2454 57.952C87.2454 58.912 87.4427 59.6613 87.8374 60.2C88.2374 60.7333 88.8427 61 89.6534 61ZM96.6675 55.52C96.9235 54.9653 97.2382 54.5333 97.6115 54.224C97.9848 53.9093 98.4408 53.752 98.9795 53.752C99.1502 53.752 99.3128 53.7707 99.4675 53.808C99.6275 53.8453 99.7688 53.904 99.8915 53.984L99.7875 55.048C99.7555 55.1813 99.6755 55.248 99.5475 55.248C99.4728 55.248 99.3635 55.232 99.2195 55.2C99.0755 55.168 98.9128 55.152 98.7315 55.152C98.4755 55.152 98.2462 55.1893 98.0435 55.264C97.8462 55.3387 97.6675 55.4507 97.5075 55.6C97.3528 55.744 97.2115 55.9253 97.0835 56.144C96.9608 56.3573 96.8488 56.6027 96.7475 56.88V62H95.3155V53.896H96.1315C96.2862 53.896 96.3928 53.9253 96.4515 53.984C96.5102 54.0427 96.5502 54.144 96.5715 54.288L96.6675 55.52ZM103.632 62.128C102.992 62.128 102.498 61.9493 102.152 61.592C101.81 61.2347 101.64 60.72 101.64 60.048V55.088H100.664C100.578 55.088 100.506 55.064 100.448 55.016C100.389 54.9627 100.36 54.8827 100.36 54.776V54.208L101.688 54.04L102.016 51.536C102.032 51.456 102.066 51.392 102.12 51.344C102.178 51.2907 102.253 51.264 102.344 51.264H103.064V54.056H105.408V55.088H103.064V59.952C103.064 60.2933 103.146 60.5467 103.312 60.712C103.477 60.8773 103.69 60.96 103.952 60.96C104.101 60.96 104.229 60.9413 104.336 60.904C104.448 60.8613 104.544 60.816 104.624 60.768C104.704 60.72 104.77 60.6773 104.824 60.64C104.882 60.5973 104.933 60.576 104.976 60.576C105.05 60.576 105.117 60.6213 105.176 60.712L105.592 61.392C105.346 61.6213 105.05 61.8027 104.704 61.936C104.357 62.064 104 62.128 103.632 62.128ZM111.598 55.232C111.534 55.3493 111.435 55.408 111.302 55.408C111.222 55.408 111.131 55.3787 111.03 55.32C110.929 55.2613 110.803 55.1973 110.654 55.128C110.51 55.0533 110.337 54.9867 110.134 54.928C109.931 54.864 109.691 54.832 109.414 54.832C109.174 54.832 108.958 54.864 108.766 54.928C108.574 54.9867 108.409 55.0693 108.27 55.176C108.137 55.2827 108.033 55.408 107.958 55.552C107.889 55.6907 107.854 55.8427 107.854 56.008C107.854 56.216 107.913 56.3893 108.03 56.528C108.153 56.6667 108.313 56.7867 108.51 56.888C108.707 56.9893 108.931 57.08 109.182 57.16C109.433 57.2347 109.689 57.3173 109.95 57.408C110.217 57.4933 110.475 57.5893 110.726 57.696C110.977 57.8027 111.201 57.936 111.398 58.096C111.595 58.256 111.753 58.4533 111.87 58.688C111.993 58.9173 112.054 59.1947 112.054 59.52C112.054 59.8933 111.987 60.24 111.854 60.56C111.721 60.8747 111.523 61.1493 111.262 61.384C111.001 61.6133 110.681 61.7947 110.302 61.928C109.923 62.0613 109.486 62.128 108.99 62.128C108.425 62.128 107.913 62.0373 107.454 61.856C106.995 61.6693 106.606 61.432 106.286 61.144L106.622 60.6C106.665 60.5307 106.715 60.4773 106.774 60.44C106.833 60.4027 106.907 60.384 106.998 60.384C107.094 60.384 107.195 60.4213 107.302 60.496C107.409 60.5707 107.537 60.6533 107.686 60.744C107.841 60.8347 108.027 60.9173 108.246 60.992C108.465 61.0667 108.737 61.104 109.062 61.104C109.339 61.104 109.582 61.0693 109.79 61C109.998 60.9253 110.171 60.8267 110.31 60.704C110.449 60.5813 110.55 60.44 110.614 60.28C110.683 60.12 110.718 59.9493 110.718 59.768C110.718 59.544 110.657 59.36 110.534 59.216C110.417 59.0667 110.259 58.9413 110.062 58.84C109.865 58.7333 109.638 58.6427 109.382 58.568C109.131 58.488 108.873 58.4053 108.606 58.32C108.345 58.2347 108.086 58.1387 107.83 58.032C107.579 57.92 107.355 57.7813 107.158 57.616C106.961 57.4507 106.801 57.248 106.678 57.008C106.561 56.7627 106.502 56.4667 106.502 56.12C106.502 55.8107 106.566 55.5147 106.694 55.232C106.822 54.944 107.009 54.6933 107.254 54.48C107.499 54.2613 107.801 54.088 108.158 53.96C108.515 53.832 108.923 53.768 109.382 53.768C109.915 53.768 110.393 53.8533 110.814 54.024C111.241 54.1893 111.609 54.4187 111.918 54.712L111.598 55.232ZM113.712 63.936C113.669 63.8987 113.64 63.864 113.624 63.832C113.608 63.8 113.6 63.76 113.6 63.712C113.6 63.6747 113.611 63.6373 113.632 63.6C113.659 63.5627 113.688 63.528 113.72 63.496C113.773 63.4373 113.84 63.36 113.92 63.264C114.005 63.168 114.091 63.0533 114.176 62.92C114.261 62.792 114.339 62.648 114.408 62.488C114.483 62.3333 114.536 62.168 114.568 61.992C114.552 61.9973 114.533 62 114.512 62C114.496 62 114.48 62 114.464 62C114.187 62 113.96 61.9093 113.784 61.728C113.613 61.5413 113.528 61.304 113.528 61.016C113.528 60.7653 113.613 60.552 113.784 60.376C113.96 60.2 114.192 60.112 114.48 60.112C114.64 60.112 114.781 60.1413 114.904 60.2C115.027 60.2587 115.128 60.3413 115.208 60.448C115.293 60.5493 115.357 60.6693 115.4 60.808C115.443 60.9413 115.464 61.088 115.464 61.248C115.464 61.488 115.429 61.7387 115.36 62C115.296 62.256 115.197 62.5093 115.064 62.76C114.936 63.016 114.779 63.264 114.592 63.504C114.405 63.744 114.192 63.9653 113.952 64.168L113.712 63.936ZM122.951 60.048C123.212 60.4 123.497 60.648 123.807 60.792C124.116 60.936 124.463 61.008 124.847 61.008C125.604 61.008 126.185 60.7387 126.591 60.2C126.996 59.6613 127.199 58.8933 127.199 57.896C127.199 57.368 127.151 56.9147 127.055 56.536C126.964 56.1573 126.831 55.848 126.655 55.608C126.479 55.3627 126.263 55.184 126.007 55.072C125.751 54.96 125.46 54.904 125.135 54.904C124.671 54.904 124.263 55.0107 123.911 55.224C123.564 55.4373 123.244 55.7387 122.951 56.128V60.048ZM122.879 55.152C123.22 54.7307 123.615 54.392 124.063 54.136C124.511 53.88 125.023 53.752 125.599 53.752C126.068 53.752 126.492 53.8427 126.871 54.024C127.249 54.2 127.572 54.464 127.839 54.816C128.105 55.1627 128.311 55.5947 128.455 56.112C128.599 56.6293 128.671 57.224 128.671 57.896C128.671 58.4933 128.591 59.0507 128.431 59.568C128.271 60.08 128.039 60.5253 127.735 60.904C127.436 61.2773 127.068 61.5733 126.631 61.792C126.199 62.0053 125.711 62.112 125.167 62.112C124.671 62.112 124.244 62.0293 123.887 61.864C123.535 61.6933 123.223 61.4587 122.951 61.16V64.744H121.519V53.896H122.375C122.577 53.896 122.703 53.9947 122.751 54.192L122.879 55.152ZM131.839 55.52C132.095 54.9653 132.41 54.5333 132.783 54.224C133.157 53.9093 133.613 53.752 134.151 53.752C134.322 53.752 134.485 53.7707 134.639 53.808C134.799 53.8453 134.941 53.904 135.063 53.984L134.959 55.048C134.927 55.1813 134.847 55.248 134.719 55.248C134.645 55.248 134.535 55.232 134.391 55.2C134.247 55.168 134.085 55.152 133.903 55.152C133.647 55.152 133.418 55.1893 133.215 55.264C133.018 55.3387 132.839 55.4507 132.679 55.6C132.525 55.744 132.383 55.9253 132.255 56.144C132.133 56.3573 132.021 56.6027 131.919 56.88V62H130.487V53.896H131.303C131.458 53.896 131.565 53.9253 131.623 53.984C131.682 54.0427 131.722 54.144 131.743 54.288L131.839 55.52ZM141.411 57.064C141.411 56.7333 141.363 56.432 141.267 56.16C141.177 55.8827 141.041 55.6453 140.859 55.448C140.683 55.2453 140.467 55.0907 140.211 54.984C139.955 54.872 139.665 54.816 139.339 54.816C138.657 54.816 138.115 55.016 137.715 55.416C137.321 55.8107 137.075 56.36 136.979 57.064H141.411ZM142.563 60.864C142.387 61.0773 142.177 61.264 141.931 61.424C141.686 61.5787 141.422 61.7067 141.139 61.808C140.862 61.9093 140.574 61.984 140.275 62.032C139.977 62.0853 139.681 62.112 139.387 62.112C138.827 62.112 138.31 62.0187 137.835 61.832C137.366 61.64 136.958 61.3627 136.611 61C136.27 60.632 136.003 60.1787 135.811 59.64C135.619 59.1013 135.523 58.4827 135.523 57.784C135.523 57.2187 135.609 56.6907 135.779 56.2C135.955 55.7093 136.206 55.2853 136.531 54.928C136.857 54.5653 137.254 54.2827 137.723 54.08C138.193 53.872 138.721 53.768 139.307 53.768C139.793 53.768 140.241 53.8507 140.651 54.016C141.067 54.176 141.425 54.4107 141.723 54.72C142.027 55.024 142.265 55.4027 142.435 55.856C142.606 56.304 142.691 56.816 142.691 57.392C142.691 57.616 142.667 57.7653 142.619 57.84C142.571 57.9147 142.481 57.952 142.347 57.952H136.931C136.947 58.464 137.017 58.9093 137.139 59.288C137.267 59.6667 137.443 59.984 137.667 60.24C137.891 60.4907 138.158 60.68 138.467 60.808C138.777 60.9307 139.123 60.992 139.507 60.992C139.865 60.992 140.171 60.952 140.427 60.872C140.689 60.7867 140.913 60.696 141.099 60.6C141.286 60.504 141.441 60.416 141.563 60.336C141.691 60.2507 141.801 60.208 141.891 60.208C142.009 60.208 142.099 60.2533 142.163 60.344L142.563 60.864ZM151.213 53.896L147.909 62H146.629L143.325 53.896H144.485C144.602 53.896 144.698 53.9253 144.773 53.984C144.847 54.0427 144.898 54.112 144.925 54.192L146.981 59.408C147.045 59.6053 147.101 59.7973 147.149 59.984C147.197 60.1707 147.242 60.3573 147.285 60.544C147.327 60.3573 147.373 60.1707 147.421 59.984C147.469 59.7973 147.527 59.6053 147.597 59.408L149.677 54.192C149.709 54.1067 149.762 54.0373 149.837 53.984C149.911 53.9253 149.999 53.896 150.101 53.896H151.213ZM154.023 53.896V62H152.599V53.896H154.023ZM154.327 51.352C154.327 51.4907 154.297 51.6213 154.239 51.744C154.185 51.8613 154.111 51.968 154.015 52.064C153.924 52.1547 153.815 52.2267 153.687 52.28C153.564 52.3333 153.433 52.36 153.295 52.36C153.156 52.36 153.025 52.3333 152.903 52.28C152.785 52.2267 152.681 52.1547 152.591 52.064C152.5 51.968 152.428 51.8613 152.375 51.744C152.321 51.6213 152.295 51.4907 152.295 51.352C152.295 51.2133 152.321 51.0827 152.375 50.96C152.428 50.832 152.5 50.7227 152.591 50.632C152.681 50.536 152.785 50.4613 152.903 50.408C153.025 50.3547 153.156 50.328 153.295 50.328C153.433 50.328 153.564 50.3547 153.687 50.408C153.815 50.4613 153.924 50.536 154.015 50.632C154.111 50.7227 154.185 50.832 154.239 50.96C154.297 51.0827 154.327 51.2133 154.327 51.352ZM161.786 57.064C161.786 56.7333 161.738 56.432 161.642 56.16C161.552 55.8827 161.416 55.6453 161.234 55.448C161.058 55.2453 160.842 55.0907 160.586 54.984C160.33 54.872 160.04 54.816 159.714 54.816C159.032 54.816 158.49 55.016 158.09 55.416C157.696 55.8107 157.45 56.36 157.354 57.064H161.786ZM162.938 60.864C162.762 61.0773 162.552 61.264 162.306 61.424C162.061 61.5787 161.797 61.7067 161.514 61.808C161.237 61.9093 160.949 61.984 160.65 62.032C160.352 62.0853 160.056 62.112 159.762 62.112C159.202 62.112 158.685 62.0187 158.21 61.832C157.741 61.64 157.333 61.3627 156.986 61C156.645 60.632 156.378 60.1787 156.186 59.64C155.994 59.1013 155.898 58.4827 155.898 57.784C155.898 57.2187 155.984 56.6907 156.154 56.2C156.33 55.7093 156.581 55.2853 156.906 54.928C157.232 54.5653 157.629 54.2827 158.098 54.08C158.568 53.872 159.096 53.768 159.682 53.768C160.168 53.768 160.616 53.8507 161.026 54.016C161.442 54.176 161.8 54.4107 162.098 54.72C162.402 55.024 162.64 55.4027 162.81 55.856C162.981 56.304 163.066 56.816 163.066 57.392C163.066 57.616 163.042 57.7653 162.994 57.84C162.946 57.9147 162.856 57.952 162.722 57.952H157.306C157.322 58.464 157.392 58.9093 157.514 59.288C157.642 59.6667 157.818 59.984 158.042 60.24C158.266 60.4907 158.533 60.68 158.842 60.808C159.152 60.9307 159.498 60.992 159.882 60.992C160.24 60.992 160.546 60.952 160.802 60.872C161.064 60.7867 161.288 60.696 161.474 60.6C161.661 60.504 161.816 60.416 161.938 60.336C162.066 60.2507 162.176 60.208 162.266 60.208C162.384 60.208 162.474 60.2533 162.538 60.344L162.938 60.864ZM175.913 53.896L173.289 62H172.161C172.023 62 171.927 61.9093 171.873 61.728L170.081 56.232C170.039 56.1093 170.004 55.9867 169.977 55.864C169.951 55.736 169.924 55.6107 169.897 55.488C169.871 55.6107 169.844 55.736 169.817 55.864C169.791 55.9867 169.756 56.112 169.713 56.24L167.889 61.728C167.841 61.9093 167.735 62 167.569 62H166.497L163.873 53.896H164.993C165.105 53.896 165.199 53.9253 165.273 53.984C165.353 54.0427 165.407 54.112 165.433 54.192L166.985 59.408C167.076 59.792 167.148 60.1547 167.201 60.496C167.249 60.32 167.297 60.1413 167.345 59.96C167.399 59.7787 167.455 59.5947 167.513 59.408L169.225 54.16C169.252 54.08 169.297 54.0133 169.361 53.96C169.431 53.9067 169.513 53.88 169.609 53.88H170.233C170.34 53.88 170.428 53.9067 170.497 53.96C170.567 54.0133 170.615 54.08 170.641 54.16L172.313 59.408C172.372 59.5947 172.425 59.7787 172.473 59.96C172.521 60.1413 172.567 60.32 172.609 60.496C172.636 60.32 172.668 60.144 172.705 59.968C172.748 59.7867 172.793 59.6 172.841 59.408L174.425 54.192C174.452 54.1067 174.503 54.0373 174.577 53.984C174.652 53.9253 174.74 53.896 174.841 53.896H175.913ZM181.957 55.232C181.893 55.3493 181.795 55.408 181.661 55.408C181.581 55.408 181.491 55.3787 181.389 55.32C181.288 55.2613 181.163 55.1973 181.013 55.128C180.869 55.0533 180.696 54.9867 180.493 54.928C180.291 54.864 180.051 54.832 179.773 54.832C179.533 54.832 179.317 54.864 179.125 54.928C178.933 54.9867 178.768 55.0693 178.629 55.176C178.496 55.2827 178.392 55.408 178.317 55.552C178.248 55.6907 178.213 55.8427 178.213 56.008C178.213 56.216 178.272 56.3893 178.389 56.528C178.512 56.6667 178.672 56.7867 178.869 56.888C179.067 56.9893 179.291 57.08 179.541 57.16C179.792 57.2347 180.048 57.3173 180.309 57.408C180.576 57.4933 180.835 57.5893 181.085 57.696C181.336 57.8027 181.56 57.936 181.757 58.096C181.955 58.256 182.112 58.4533 182.229 58.688C182.352 58.9173 182.413 59.1947 182.413 59.52C182.413 59.8933 182.347 60.24 182.213 60.56C182.08 60.8747 181.883 61.1493 181.621 61.384C181.36 61.6133 181.04 61.7947 180.661 61.928C180.283 62.0613 179.845 62.128 179.349 62.128C178.784 62.128 178.272 62.0373 177.813 61.856C177.355 61.6693 176.965 61.432 176.645 61.144L176.981 60.6C177.024 60.5307 177.075 60.4773 177.133 60.44C177.192 60.4027 177.267 60.384 177.357 60.384C177.453 60.384 177.555 60.4213 177.661 60.496C177.768 60.5707 177.896 60.6533 178.045 60.744C178.2 60.8347 178.387 60.9173 178.605 60.992C178.824 61.0667 179.096 61.104 179.421 61.104C179.699 61.104 179.941 61.0693 180.149 61C180.357 60.9253 180.531 60.8267 180.669 60.704C180.808 60.5813 180.909 60.44 180.973 60.28C181.043 60.12 181.077 59.9493 181.077 59.768C181.077 59.544 181.016 59.36 180.893 59.216C180.776 59.0667 180.619 58.9413 180.421 58.84C180.224 58.7333 179.997 58.6427 179.741 58.568C179.491 58.488 179.232 58.4053 178.965 58.32C178.704 58.2347 178.445 58.1387 178.189 58.032C177.939 57.92 177.715 57.7813 177.517 57.616C177.32 57.4507 177.16 57.248 177.037 57.008C176.92 56.7627 176.861 56.4667 176.861 56.12C176.861 55.8107 176.925 55.5147 177.053 55.232C177.181 54.944 177.368 54.6933 177.613 54.48C177.859 54.2613 178.16 54.088 178.517 53.96C178.875 53.832 179.283 53.768 179.741 53.768C180.275 53.768 180.752 53.8533 181.173 54.024C181.6 54.1893 181.968 54.4187 182.277 54.712L181.957 55.232ZM192.645 58.352C191.989 58.3733 191.429 58.4267 190.965 58.512C190.506 58.592 190.13 58.6987 189.837 58.832C189.549 58.9653 189.338 59.1227 189.205 59.304C189.077 59.4853 189.013 59.688 189.013 59.912C189.013 60.1253 189.048 60.3093 189.117 60.464C189.186 60.6187 189.28 60.7467 189.397 60.848C189.52 60.944 189.661 61.016 189.821 61.064C189.986 61.1067 190.162 61.128 190.349 61.128C190.6 61.128 190.829 61.104 191.037 61.056C191.245 61.0027 191.44 60.928 191.621 60.832C191.808 60.736 191.984 60.6213 192.149 60.488C192.32 60.3547 192.485 60.2027 192.645 60.032V58.352ZM188.045 55.04C188.493 54.608 188.976 54.2853 189.493 54.072C190.01 53.8587 190.584 53.752 191.213 53.752C191.666 53.752 192.069 53.8267 192.421 53.976C192.773 54.1253 193.069 54.3333 193.309 54.6C193.549 54.8667 193.73 55.1893 193.853 55.568C193.976 55.9467 194.037 56.3627 194.037 56.816V62H193.405C193.266 62 193.16 61.9787 193.085 61.936C193.01 61.888 192.952 61.7973 192.909 61.664L192.749 60.896C192.536 61.0933 192.328 61.2693 192.125 61.424C191.922 61.5733 191.709 61.7013 191.485 61.808C191.261 61.9093 191.021 61.9867 190.765 62.04C190.514 62.0987 190.234 62.128 189.925 62.128C189.61 62.128 189.314 62.0853 189.037 62C188.76 61.9093 188.517 61.776 188.309 61.6C188.106 61.424 187.944 61.2027 187.821 60.936C187.704 60.664 187.645 60.344 187.645 59.976C187.645 59.656 187.733 59.3493 187.909 59.056C188.085 58.7573 188.37 58.4933 188.765 58.264C189.16 58.0347 189.674 57.848 190.309 57.704C190.944 57.5547 191.722 57.4693 192.645 57.448V56.816C192.645 56.1867 192.509 55.712 192.237 55.392C191.965 55.0667 191.568 54.904 191.045 54.904C190.693 54.904 190.397 54.9493 190.157 55.04C189.922 55.1253 189.717 55.224 189.541 55.336C189.37 55.4427 189.221 55.5413 189.093 55.632C188.97 55.7173 188.848 55.76 188.725 55.76C188.629 55.76 188.546 55.736 188.477 55.688C188.408 55.6347 188.349 55.5707 188.301 55.496L188.045 55.04ZM197.55 55.072C197.726 54.8747 197.913 54.696 198.11 54.536C198.307 54.376 198.515 54.24 198.734 54.128C198.958 54.0107 199.193 53.9227 199.438 53.864C199.689 53.8 199.958 53.768 200.246 53.768C200.689 53.768 201.078 53.8427 201.414 53.992C201.755 54.136 202.038 54.344 202.262 54.616C202.491 54.8827 202.665 55.2053 202.782 55.584C202.899 55.9627 202.958 56.3813 202.958 56.84V62H201.526V56.84C201.526 56.2267 201.385 55.752 201.102 55.416C200.825 55.0747 200.401 54.904 199.83 54.904C199.409 54.904 199.014 55.0053 198.646 55.208C198.283 55.4107 197.947 55.6853 197.638 56.032V62H196.206V53.896H197.062C197.265 53.896 197.39 53.9947 197.438 54.192L197.55 55.072ZM210.408 55.824C210.141 55.4667 209.853 55.2187 209.544 55.08C209.235 54.936 208.888 54.864 208.504 54.864C207.752 54.864 207.173 55.1333 206.768 55.672C206.363 56.2107 206.16 56.9787 206.16 57.976C206.16 58.504 206.205 58.9573 206.296 59.336C206.387 59.7093 206.52 60.0187 206.696 60.264C206.872 60.504 207.088 60.68 207.344 60.792C207.6 60.904 207.891 60.96 208.216 60.96C208.685 60.96 209.093 60.8533 209.44 60.64C209.792 60.4267 210.115 60.1253 210.408 59.736V55.824ZM211.832 50.216V62H210.984C210.781 62 210.653 61.9013 210.6 61.704L210.472 60.72C210.125 61.136 209.731 61.472 209.288 61.728C208.845 61.984 208.333 62.112 207.752 62.112C207.288 62.112 206.867 62.024 206.488 61.848C206.109 61.6667 205.787 61.4027 205.52 61.056C205.253 60.7093 205.048 60.2773 204.904 59.76C204.76 59.2427 204.688 58.648 204.688 57.976C204.688 57.3787 204.768 56.824 204.928 56.312C205.088 55.7947 205.317 55.3467 205.616 54.968C205.915 54.5893 206.28 54.2933 206.712 54.08C207.149 53.8613 207.64 53.752 208.184 53.752C208.68 53.752 209.104 53.8373 209.456 54.008C209.813 54.1733 210.131 54.4053 210.408 54.704V50.216H211.832ZM222.567 58.352C221.911 58.3733 221.351 58.4267 220.887 58.512C220.428 58.592 220.052 58.6987 219.759 58.832C219.471 58.9653 219.26 59.1227 219.127 59.304C218.999 59.4853 218.935 59.688 218.935 59.912C218.935 60.1253 218.97 60.3093 219.039 60.464C219.108 60.6187 219.202 60.7467 219.319 60.848C219.442 60.944 219.583 61.016 219.743 61.064C219.908 61.1067 220.084 61.128 220.271 61.128C220.522 61.128 220.751 61.104 220.959 61.056C221.167 61.0027 221.362 60.928 221.543 60.832C221.73 60.736 221.906 60.6213 222.071 60.488C222.242 60.3547 222.407 60.2027 222.567 60.032V58.352ZM217.967 55.04C218.415 54.608 218.898 54.2853 219.415 54.072C219.932 53.8587 220.506 53.752 221.135 53.752C221.588 53.752 221.991 53.8267 222.343 53.976C222.695 54.1253 222.991 54.3333 223.231 54.6C223.471 54.8667 223.652 55.1893 223.775 55.568C223.898 55.9467 223.959 56.3627 223.959 56.816V62H223.327C223.188 62 223.082 61.9787 223.007 61.936C222.932 61.888 222.874 61.7973 222.831 61.664L222.671 60.896C222.458 61.0933 222.25 61.2693 222.047 61.424C221.844 61.5733 221.631 61.7013 221.407 61.808C221.183 61.9093 220.943 61.9867 220.687 62.04C220.436 62.0987 220.156 62.128 219.847 62.128C219.532 62.128 219.236 62.0853 218.959 62C218.682 61.9093 218.439 61.776 218.231 61.6C218.028 61.424 217.866 61.2027 217.743 60.936C217.626 60.664 217.567 60.344 217.567 59.976C217.567 59.656 217.655 59.3493 217.831 59.056C218.007 58.7573 218.292 58.4933 218.687 58.264C219.082 58.0347 219.596 57.848 220.231 57.704C220.866 57.5547 221.644 57.4693 222.567 57.448V56.816C222.567 56.1867 222.431 55.712 222.159 55.392C221.887 55.0667 221.49 54.904 220.967 54.904C220.615 54.904 220.319 54.9493 220.079 55.04C219.844 55.1253 219.639 55.224 219.463 55.336C219.292 55.4427 219.143 55.5413 219.015 55.632C218.892 55.7173 218.77 55.76 218.647 55.76C218.551 55.76 218.468 55.736 218.399 55.688C218.33 55.6347 218.271 55.5707 218.223 55.496L217.967 55.04ZM235.502 55.824C235.235 55.4667 234.947 55.2187 234.638 55.08C234.328 54.936 233.982 54.864 233.598 54.864C232.846 54.864 232.267 55.1333 231.862 55.672C231.456 56.2107 231.254 56.9787 231.254 57.976C231.254 58.504 231.299 58.9573 231.39 59.336C231.48 59.7093 231.614 60.0187 231.79 60.264C231.966 60.504 232.182 60.68 232.438 60.792C232.694 60.904 232.984 60.96 233.31 60.96C233.779 60.96 234.187 60.8533 234.534 60.64C234.886 60.4267 235.208 60.1253 235.502 59.736V55.824ZM236.926 50.216V62H236.078C235.875 62 235.747 61.9013 235.694 61.704L235.566 60.72C235.219 61.136 234.824 61.472 234.382 61.728C233.939 61.984 233.427 62.112 232.846 62.112C232.382 62.112 231.96 62.024 231.582 61.848C231.203 61.6667 230.88 61.4027 230.614 61.056C230.347 60.7093 230.142 60.2773 229.998 59.76C229.854 59.2427 229.782 58.648 229.782 57.976C229.782 57.3787 229.862 56.824 230.022 56.312C230.182 55.7947 230.411 55.3467 230.71 54.968C231.008 54.5893 231.374 54.2933 231.806 54.08C232.243 53.8613 232.734 53.752 233.278 53.752C233.774 53.752 234.198 53.8373 234.55 54.008C234.907 54.1733 235.224 54.4053 235.502 54.704V50.216H236.926ZM244.599 57.064C244.599 56.7333 244.551 56.432 244.455 56.16C244.364 55.8827 244.228 55.6453 244.047 55.448C243.871 55.2453 243.655 55.0907 243.399 54.984C243.143 54.872 242.852 54.816 242.527 54.816C241.844 54.816 241.303 55.016 240.903 55.416C240.508 55.8107 240.263 56.36 240.167 57.064H244.599ZM245.751 60.864C245.575 61.0773 245.364 61.264 245.119 61.424C244.874 61.5787 244.61 61.7067 244.327 61.808C244.05 61.9093 243.762 61.984 243.463 62.032C243.164 62.0853 242.868 62.112 242.575 62.112C242.015 62.112 241.498 62.0187 241.023 61.832C240.554 61.64 240.146 61.3627 239.799 61C239.458 60.632 239.191 60.1787 238.999 59.64C238.807 59.1013 238.711 58.4827 238.711 57.784C238.711 57.2187 238.796 56.6907 238.967 56.2C239.143 55.7093 239.394 55.2853 239.719 54.928C240.044 54.5653 240.442 54.2827 240.911 54.08C241.38 53.872 241.908 53.768 242.495 53.768C242.98 53.768 243.428 53.8507 243.839 54.016C244.255 54.176 244.612 54.4107 244.911 54.72C245.215 55.024 245.452 55.4027 245.623 55.856C245.794 56.304 245.879 56.816 245.879 57.392C245.879 57.616 245.855 57.7653 245.807 57.84C245.759 57.9147 245.668 57.952 245.535 57.952H240.119C240.135 58.464 240.204 58.9093 240.327 59.288C240.455 59.6667 240.631 59.984 240.855 60.24C241.079 60.4907 241.346 60.68 241.655 60.808C241.964 60.9307 242.311 60.992 242.695 60.992C243.052 60.992 243.359 60.952 243.615 60.872C243.876 60.7867 244.1 60.696 244.287 60.6C244.474 60.504 244.628 60.416 244.751 60.336C244.879 60.2507 244.988 60.208 245.079 60.208C245.196 60.208 245.287 60.2533 245.351 60.344L245.751 60.864ZM252.908 55.824C252.641 55.4667 252.353 55.2187 252.044 55.08C251.735 54.936 251.388 54.864 251.004 54.864C250.252 54.864 249.673 55.1333 249.268 55.672C248.863 56.2107 248.66 56.9787 248.66 57.976C248.66 58.504 248.705 58.9573 248.796 59.336C248.887 59.7093 249.02 60.0187 249.196 60.264C249.372 60.504 249.588 60.68 249.844 60.792C250.1 60.904 250.391 60.96 250.716 60.96C251.185 60.96 251.593 60.8533 251.94 60.64C252.292 60.4267 252.615 60.1253 252.908 59.736V55.824ZM254.332 50.216V62H253.484C253.281 62 253.153 61.9013 253.1 61.704L252.972 60.72C252.625 61.136 252.231 61.472 251.788 61.728C251.345 61.984 250.833 62.112 250.252 62.112C249.788 62.112 249.367 62.024 248.988 61.848C248.609 61.6667 248.287 61.4027 248.02 61.056C247.753 60.7093 247.548 60.2773 247.404 59.76C247.26 59.2427 247.188 58.648 247.188 57.976C247.188 57.3787 247.268 56.824 247.428 56.312C247.588 55.7947 247.817 55.3467 248.116 54.968C248.415 54.5893 248.78 54.2933 249.212 54.08C249.649 53.8613 250.14 53.752 250.684 53.752C251.18 53.752 251.604 53.8373 251.956 54.008C252.313 54.1733 252.631 54.4053 252.908 54.704V50.216H254.332ZM258.085 53.896V62H256.661V53.896H258.085ZM258.389 51.352C258.389 51.4907 258.36 51.6213 258.301 51.744C258.248 51.8613 258.173 51.968 258.077 52.064C257.986 52.1547 257.877 52.2267 257.749 52.28C257.626 52.3333 257.496 52.36 257.357 52.36C257.218 52.36 257.088 52.3333 256.965 52.28C256.848 52.2267 256.744 52.1547 256.653 52.064C256.562 51.968 256.49 51.8613 256.437 51.744C256.384 51.6213 256.357 51.4907 256.357 51.352C256.357 51.2133 256.384 51.0827 256.437 50.96C256.49 50.832 256.562 50.7227 256.653 50.632C256.744 50.536 256.848 50.4613 256.965 50.408C257.088 50.3547 257.218 50.328 257.357 50.328C257.496 50.328 257.626 50.3547 257.749 50.408C257.877 50.4613 257.986 50.536 258.077 50.632C258.173 50.7227 258.248 50.832 258.301 50.96C258.36 51.0827 258.389 51.2133 258.389 51.352ZM266.065 55.336C266.022 55.3947 265.98 55.44 265.937 55.472C265.894 55.504 265.836 55.52 265.761 55.52C265.681 55.52 265.593 55.488 265.497 55.424C265.401 55.3547 265.281 55.28 265.137 55.2C264.998 55.12 264.825 55.048 264.617 54.984C264.414 54.9147 264.164 54.88 263.865 54.88C263.465 54.88 263.113 54.952 262.809 55.096C262.505 55.2347 262.249 55.4373 262.041 55.704C261.838 55.9707 261.684 56.2933 261.577 56.672C261.476 57.0507 261.425 57.4747 261.425 57.944C261.425 58.4347 261.481 58.872 261.593 59.256C261.705 59.6347 261.862 59.9547 262.065 60.216C262.273 60.472 262.521 60.6693 262.809 60.808C263.102 60.9413 263.43 61.008 263.793 61.008C264.14 61.008 264.425 60.968 264.649 60.888C264.873 60.8027 265.057 60.7093 265.201 60.608C265.35 60.5067 265.473 60.416 265.569 60.336C265.67 60.2507 265.769 60.208 265.865 60.208C265.982 60.208 266.073 60.2533 266.137 60.344L266.537 60.864C266.361 61.0827 266.161 61.2693 265.937 61.424C265.713 61.5787 265.47 61.7093 265.209 61.816C264.953 61.9173 264.684 61.992 264.401 62.04C264.118 62.088 263.83 62.112 263.537 62.112C263.03 62.112 262.558 62.0187 262.121 61.832C261.689 61.6453 261.313 61.376 260.993 61.024C260.673 60.6667 260.422 60.2293 260.241 59.712C260.06 59.1947 259.969 58.6053 259.969 57.944C259.969 57.3413 260.052 56.784 260.217 56.272C260.388 55.76 260.633 55.32 260.953 54.952C261.278 54.5787 261.676 54.288 262.145 54.08C262.62 53.872 263.164 53.768 263.777 53.768C264.348 53.768 264.849 53.8613 265.281 54.048C265.718 54.2293 266.105 54.488 266.441 54.824L266.065 55.336ZM272.458 58.352C271.802 58.3733 271.242 58.4267 270.778 58.512C270.319 58.592 269.943 58.6987 269.65 58.832C269.362 58.9653 269.151 59.1227 269.018 59.304C268.89 59.4853 268.826 59.688 268.826 59.912C268.826 60.1253 268.86 60.3093 268.93 60.464C268.999 60.6187 269.092 60.7467 269.21 60.848C269.332 60.944 269.474 61.016 269.634 61.064C269.799 61.1067 269.975 61.128 270.162 61.128C270.412 61.128 270.642 61.104 270.85 61.056C271.058 61.0027 271.252 60.928 271.434 60.832C271.62 60.736 271.796 60.6213 271.962 60.488C272.132 60.3547 272.298 60.2027 272.458 60.032V58.352ZM267.858 55.04C268.306 54.608 268.788 54.2853 269.306 54.072C269.823 53.8587 270.396 53.752 271.026 53.752C271.479 53.752 271.882 53.8267 272.234 53.976C272.586 54.1253 272.882 54.3333 273.122 54.6C273.362 54.8667 273.543 55.1893 273.666 55.568C273.788 55.9467 273.85 56.3627 273.85 56.816V62H273.218C273.079 62 272.972 61.9787 272.898 61.936C272.823 61.888 272.764 61.7973 272.722 61.664L272.562 60.896C272.348 61.0933 272.14 61.2693 271.938 61.424C271.735 61.5733 271.522 61.7013 271.298 61.808C271.074 61.9093 270.834 61.9867 270.578 62.04C270.327 62.0987 270.047 62.128 269.738 62.128C269.423 62.128 269.127 62.0853 268.85 62C268.572 61.9093 268.33 61.776 268.122 61.6C267.919 61.424 267.756 61.2027 267.634 60.936C267.516 60.664 267.458 60.344 267.458 59.976C267.458 59.656 267.546 59.3493 267.722 59.056C267.898 58.7573 268.183 58.4933 268.578 58.264C268.972 58.0347 269.487 57.848 270.122 57.704C270.756 57.5547 271.535 57.4693 272.458 57.448V56.816C272.458 56.1867 272.322 55.712 272.05 55.392C271.778 55.0667 271.38 54.904 270.858 54.904C270.506 54.904 270.21 54.9493 269.97 55.04C269.735 55.1253 269.53 55.224 269.354 55.336C269.183 55.4427 269.034 55.5413 268.906 55.632C268.783 55.7173 268.66 55.76 268.538 55.76C268.442 55.76 268.359 55.736 268.29 55.688C268.22 55.6347 268.162 55.5707 268.113 55.496L267.858 55.04ZM278.397 62.128C277.757 62.128 277.264 61.9493 276.917 61.592C276.576 61.2347 276.405 60.72 276.405 60.048V55.088H275.429C275.344 55.088 275.272 55.064 275.213 55.016C275.155 54.9627 275.125 54.8827 275.125 54.776V54.208L276.453 54.04L276.781 51.536C276.797 51.456 276.832 51.392 276.885 51.344C276.944 51.2907 277.019 51.264 277.109 51.264H277.829V54.056H280.173V55.088H277.829V59.952C277.829 60.2933 277.912 60.5467 278.077 60.712C278.243 60.8773 278.456 60.96 278.717 60.96C278.867 60.96 278.995 60.9413 279.101 60.904C279.213 60.8613 279.309 60.816 279.389 60.768C279.469 60.72 279.536 60.6773 279.589 60.64C279.648 60.5973 279.699 60.576 279.741 60.576C279.816 60.576 279.883 60.6213 279.941 60.712L280.357 61.392C280.112 61.6213 279.816 61.8027 279.469 61.936C279.123 62.064 278.765 62.128 278.397 62.128ZM287.021 57.064C287.021 56.7333 286.973 56.432 286.877 56.16C286.786 55.8827 286.65 55.6453 286.469 55.448C286.293 55.2453 286.077 55.0907 285.821 54.984C285.565 54.872 285.274 54.816 284.949 54.816C284.266 54.816 283.725 55.016 283.325 55.416C282.93 55.8107 282.685 56.36 282.589 57.064H287.021ZM288.173 60.864C287.997 61.0773 287.786 61.264 287.541 61.424C287.295 61.5787 287.031 61.7067 286.749 61.808C286.471 61.9093 286.183 61.984 285.885 62.032C285.586 62.0853 285.29 62.112 284.997 62.112C284.437 62.112 283.919 62.0187 283.445 61.832C282.975 61.64 282.567 61.3627 282.221 61C281.879 60.632 281.613 60.1787 281.421 59.64C281.229 59.1013 281.133 58.4827 281.133 57.784C281.133 57.2187 281.218 56.6907 281.389 56.2C281.565 55.7093 281.815 55.2853 282.141 54.928C282.466 54.5653 282.863 54.2827 283.333 54.08C283.802 53.872 284.33 53.768 284.917 53.768C285.402 53.768 285.85 53.8507 286.261 54.016C286.677 54.176 287.034 54.4107 287.333 54.72C287.637 55.024 287.874 55.4027 288.045 55.856C288.215 56.304 288.301 56.816 288.301 57.392C288.301 57.616 288.277 57.7653 288.229 57.84C288.181 57.9147 288.09 57.952 287.957 57.952H282.541C282.557 58.464 282.626 58.9093 282.749 59.288C282.877 59.6667 283.053 59.984 283.277 60.24C283.501 60.4907 283.767 60.68 284.077 60.808C284.386 60.9307 284.733 60.992 285.117 60.992C285.474 60.992 285.781 60.952 286.037 60.872C286.298 60.7867 286.522 60.696 286.709 60.6C286.895 60.504 287.05 60.416 287.173 60.336C287.301 60.2507 287.41 60.208 287.501 60.208C287.618 60.208 287.709 60.2533 287.773 60.344L288.173 60.864ZM295.33 55.824C295.063 55.4667 294.775 55.2187 294.466 55.08C294.157 54.936 293.81 54.864 293.426 54.864C292.674 54.864 292.095 55.1333 291.69 55.672C291.285 56.2107 291.082 56.9787 291.082 57.976C291.082 58.504 291.127 58.9573 291.218 59.336C291.309 59.7093 291.442 60.0187 291.618 60.264C291.794 60.504 292.01 60.68 292.266 60.792C292.522 60.904 292.813 60.96 293.138 60.96C293.607 60.96 294.015 60.8533 294.362 60.64C294.714 60.4267 295.037 60.1253 295.33 59.736V55.824ZM296.754 50.216V62H295.906C295.703 62 295.575 61.9013 295.522 61.704L295.394 60.72C295.047 61.136 294.653 61.472 294.21 61.728C293.767 61.984 293.255 62.112 292.674 62.112C292.21 62.112 291.789 62.024 291.41 61.848C291.031 61.6667 290.709 61.4027 290.442 61.056C290.175 60.7093 289.97 60.2773 289.826 59.76C289.682 59.2427 289.61 58.648 289.61 57.976C289.61 57.3787 289.69 56.824 289.85 56.312C290.01 55.7947 290.239 55.3467 290.538 54.968C290.837 54.5893 291.202 54.2933 291.634 54.08C292.071 53.8613 292.562 53.752 293.106 53.752C293.602 53.752 294.026 53.8373 294.378 54.008C294.735 54.1733 295.053 54.4053 295.33 54.704V50.216H296.754ZM2.472 78.072C2.648 77.8747 2.83467 77.696 3.032 77.536C3.22933 77.376 3.43733 77.24 3.656 77.128C3.88 77.0107 4.11467 76.9227 4.36 76.864C4.61067 76.8 4.88 76.768 5.168 76.768C5.61067 76.768 6 76.8427 6.336 76.992C6.67733 77.136 6.96 77.344 7.184 77.616C7.41333 77.8827 7.58667 78.2053 7.704 78.584C7.82133 78.9627 7.88 79.3813 7.88 79.84V85H6.448V79.84C6.448 79.2267 6.30667 78.752 6.024 78.416C5.74667 78.0747 5.32267 77.904 4.752 77.904C4.33067 77.904 3.936 78.0053 3.568 78.208C3.20533 78.4107 2.86933 78.6853 2.56 79.032V85H1.128V76.896H1.984C2.18667 76.896 2.312 76.9947 2.36 77.192L2.472 78.072ZM15.4739 80.064C15.4739 79.7333 15.4259 79.432 15.3299 79.16C15.2392 78.8827 15.1032 78.6453 14.9219 78.448C14.7459 78.2453 14.5299 78.0907 14.2739 77.984C14.0179 77.872 13.7272 77.816 13.4019 77.816C12.7192 77.816 12.1779 78.016 11.7779 78.416C11.3832 78.8107 11.1379 79.36 11.0419 80.064H15.4739ZM16.6259 83.864C16.4499 84.0773 16.2392 84.264 15.9939 84.424C15.7485 84.5787 15.4845 84.7067 15.2019 84.808C14.9245 84.9093 14.6365 84.984 14.3379 85.032C14.0392 85.0853 13.7432 85.112 13.4499 85.112C12.8899 85.112 12.3725 85.0187 11.8979 84.832C11.4285 84.64 11.0205 84.3627 10.6739 84C10.3325 83.632 10.0659 83.1787 9.87388 82.64C9.68188 82.1013 9.58588 81.4827 9.58588 80.784C9.58588 80.2187 9.67121 79.6907 9.84188 79.2C10.0179 78.7093 10.2685 78.2853 10.5939 77.928C10.9192 77.5653 11.3165 77.2827 11.7859 77.08C12.2552 76.872 12.7832 76.768 13.3699 76.768C13.8552 76.768 14.3032 76.8507 14.7139 77.016C15.1299 77.176 15.4872 77.4107 15.7859 77.72C16.0899 78.024 16.3272 78.4027 16.4979 78.856C16.6685 79.304 16.7539 79.816 16.7539 80.392C16.7539 80.616 16.7299 80.7653 16.6819 80.84C16.6339 80.9147 16.5432 80.952 16.4099 80.952H10.9939C11.0099 81.464 11.0792 81.9093 11.2019 82.288C11.3299 82.6667 11.5059 82.984 11.7299 83.24C11.9539 83.4907 12.2205 83.68 12.5299 83.808C12.8392 83.9307 13.1859 83.992 13.5699 83.992C13.9272 83.992 14.2339 83.952 14.4899 83.872C14.7512 83.7867 14.9752 83.696 15.1619 83.6C15.3485 83.504 15.5032 83.416 15.6259 83.336C15.7539 83.2507 15.8632 83.208 15.9539 83.208C16.0712 83.208 16.1619 83.2533 16.2259 83.344L16.6259 83.864ZM29.6009 76.896L26.9769 85H25.8489C25.7102 85 25.6142 84.9093 25.5609 84.728L23.7689 79.232C23.7262 79.1093 23.6915 78.9867 23.6649 78.864C23.6382 78.736 23.6115 78.6107 23.5849 78.488C23.5582 78.6107 23.5315 78.736 23.5049 78.864C23.4782 78.9867 23.4435 79.112 23.4009 79.24L21.5769 84.728C21.5289 84.9093 21.4222 85 21.2569 85H20.1849L17.5609 76.896H18.6809C18.7929 76.896 18.8862 76.9253 18.9609 76.984C19.0409 77.0427 19.0942 77.112 19.1209 77.192L20.6729 82.408C20.7635 82.792 20.8355 83.1547 20.8889 83.496C20.9369 83.32 20.9849 83.1413 21.0329 82.96C21.0862 82.7787 21.1422 82.5947 21.2009 82.408L22.9129 77.16C22.9395 77.08 22.9849 77.0133 23.0489 76.96C23.1182 76.9067 23.2009 76.88 23.2969 76.88H23.9209C24.0275 76.88 24.1155 76.9067 24.1849 76.96C24.2542 77.0133 24.3022 77.08 24.3289 77.16L26.0009 82.408C26.0595 82.5947 26.1129 82.7787 26.1609 82.96C26.2089 83.1413 26.2542 83.32 26.2969 83.496C26.3235 83.32 26.3555 83.144 26.3929 82.968C26.4355 82.7867 26.4809 82.6 26.5289 82.408L28.1129 77.192C28.1395 77.1067 28.1902 77.0373 28.2649 76.984C28.3395 76.9253 28.4275 76.896 28.5289 76.896H29.6009ZM35.6449 78.232C35.5809 78.3493 35.4822 78.408 35.3489 78.408C35.2689 78.408 35.1782 78.3787 35.0769 78.32C34.9755 78.2613 34.8502 78.1973 34.7009 78.128C34.5569 78.0533 34.3835 77.9867 34.1809 77.928C33.9782 77.864 33.7382 77.832 33.4609 77.832C33.2209 77.832 33.0049 77.864 32.8129 77.928C32.6209 77.9867 32.4555 78.0693 32.3169 78.176C32.1835 78.2827 32.0795 78.408 32.0049 78.552C31.9355 78.6907 31.9009 78.8427 31.9009 79.008C31.9009 79.216 31.9595 79.3893 32.0769 79.528C32.1995 79.6667 32.3595 79.7867 32.5569 79.888C32.7542 79.9893 32.9782 80.08 33.2289 80.16C33.4795 80.2347 33.7355 80.3173 33.9969 80.408C34.2635 80.4933 34.5222 80.5893 34.7729 80.696C35.0235 80.8027 35.2475 80.936 35.4449 81.096C35.6422 81.256 35.7995 81.4533 35.9169 81.688C36.0395 81.9173 36.1009 82.1947 36.1009 82.52C36.1009 82.8933 36.0342 83.24 35.9009 83.56C35.7675 83.8747 35.5702 84.1493 35.3089 84.384C35.0475 84.6133 34.7275 84.7947 34.3489 84.928C33.9702 85.0613 33.5329 85.128 33.0369 85.128C32.4715 85.128 31.9595 85.0373 31.5009 84.856C31.0422 84.6693 30.6529 84.432 30.3329 84.144L30.6689 83.6C30.7115 83.5307 30.7622 83.4773 30.8209 83.44C30.8795 83.4027 30.9542 83.384 31.0449 83.384C31.1409 83.384 31.2422 83.4213 31.3489 83.496C31.4555 83.5707 31.5835 83.6533 31.7329 83.744C31.8875 83.8347 32.0742 83.9173 32.2929 83.992C32.5115 84.0667 32.7835 84.104 33.1089 84.104C33.3862 84.104 33.6289 84.0693 33.8369 84C34.0449 83.9253 34.2182 83.8267 34.3569 83.704C34.4955 83.5813 34.5969 83.44 34.6609 83.28C34.7302 83.12 34.7649 82.9493 34.7649 82.768C34.7649 82.544 34.7035 82.36 34.5809 82.216C34.4635 82.0667 34.3062 81.9413 34.1089 81.84C33.9115 81.7333 33.6849 81.6427 33.4289 81.568C33.1782 81.488 32.9195 81.4053 32.6529 81.32C32.3915 81.2347 32.1329 81.1387 31.8769 81.032C31.6262 80.92 31.4022 80.7813 31.2049 80.616C31.0075 80.4507 30.8475 80.248 30.7249 80.008C30.6075 79.7627 30.5489 79.4667 30.5489 79.12C30.5489 78.8107 30.6129 78.5147 30.7409 78.232C30.8689 77.944 31.0555 77.6933 31.3009 77.48C31.5462 77.2613 31.8475 77.088 32.2049 76.96C32.5622 76.832 32.9702 76.768 33.4289 76.768C33.9622 76.768 34.4395 76.8533 34.8609 77.024C35.2875 77.1893 35.6555 77.4187 35.9649 77.712L35.6449 78.232ZM46.6605 78.232C46.5965 78.3493 46.4978 78.408 46.3645 78.408C46.2845 78.408 46.1938 78.3787 46.0925 78.32C45.9912 78.2613 45.8658 78.1973 45.7165 78.128C45.5725 78.0533 45.3992 77.9867 45.1965 77.928C44.9938 77.864 44.7538 77.832 44.4765 77.832C44.2365 77.832 44.0205 77.864 43.8285 77.928C43.6365 77.9867 43.4712 78.0693 43.3325 78.176C43.1992 78.2827 43.0952 78.408 43.0205 78.552C42.9512 78.6907 42.9165 78.8427 42.9165 79.008C42.9165 79.216 42.9752 79.3893 43.0925 79.528C43.2152 79.6667 43.3752 79.7867 43.5725 79.888C43.7698 79.9893 43.9938 80.08 44.2445 80.16C44.4952 80.2347 44.7512 80.3173 45.0125 80.408C45.2792 80.4933 45.5378 80.5893 45.7885 80.696C46.0392 80.8027 46.2632 80.936 46.4605 81.096C46.6578 81.256 46.8152 81.4533 46.9325 81.688C47.0552 81.9173 47.1165 82.1947 47.1165 82.52C47.1165 82.8933 47.0498 83.24 46.9165 83.56C46.7832 83.8747 46.5858 84.1493 46.3245 84.384C46.0632 84.6133 45.7432 84.7947 45.3645 84.928C44.9858 85.0613 44.5485 85.128 44.0525 85.128C43.4872 85.128 42.9752 85.0373 42.5165 84.856C42.0578 84.6693 41.6685 84.432 41.3485 84.144L41.6845 83.6C41.7272 83.5307 41.7778 83.4773 41.8365 83.44C41.8952 83.4027 41.9698 83.384 42.0605 83.384C42.1565 83.384 42.2578 83.4213 42.3645 83.496C42.4712 83.5707 42.5992 83.6533 42.7485 83.744C42.9032 83.8347 43.0898 83.9173 43.3085 83.992C43.5272 84.0667 43.7992 84.104 44.1245 84.104C44.4018 84.104 44.6445 84.0693 44.8525 84C45.0605 83.9253 45.2338 83.8267 45.3725 83.704C45.5112 83.5813 45.6125 83.44 45.6765 83.28C45.7458 83.12 45.7805 82.9493 45.7805 82.768C45.7805 82.544 45.7192 82.36 45.5965 82.216C45.4792 82.0667 45.3218 81.9413 45.1245 81.84C44.9272 81.7333 44.7005 81.6427 44.4445 81.568C44.1938 81.488 43.9352 81.4053 43.6685 81.32C43.4072 81.2347 43.1485 81.1387 42.8925 81.032C42.6418 80.92 42.4178 80.7813 42.2205 80.616C42.0232 80.4507 41.8632 80.248 41.7405 80.008C41.6232 79.7627 41.5645 79.4667 41.5645 79.12C41.5645 78.8107 41.6285 78.5147 41.7565 78.232C41.8845 77.944 42.0712 77.6933 42.3165 77.48C42.5618 77.2613 42.8632 77.088 43.2205 76.96C43.5778 76.832 43.9858 76.768 44.4445 76.768C44.9778 76.768 45.4552 76.8533 45.8765 77.024C46.3032 77.1893 46.6712 77.4187 46.9805 77.712L46.6605 78.232ZM54.2864 80.064C54.2864 79.7333 54.2384 79.432 54.1424 79.16C54.0517 78.8827 53.9157 78.6453 53.7344 78.448C53.5584 78.2453 53.3424 78.0907 53.0864 77.984C52.8304 77.872 52.5397 77.816 52.2144 77.816C51.5317 77.816 50.9904 78.016 50.5904 78.416C50.1957 78.8107 49.9504 79.36 49.8544 80.064H54.2864ZM55.4384 83.864C55.2624 84.0773 55.0517 84.264 54.8064 84.424C54.561 84.5787 54.297 84.7067 54.0144 84.808C53.737 84.9093 53.449 84.984 53.1504 85.032C52.8517 85.0853 52.5557 85.112 52.2624 85.112C51.7024 85.112 51.185 85.0187 50.7104 84.832C50.241 84.64 49.833 84.3627 49.4864 84C49.145 83.632 48.8784 83.1787 48.6864 82.64C48.4944 82.1013 48.3984 81.4827 48.3984 80.784C48.3984 80.2187 48.4837 79.6907 48.6544 79.2C48.8304 78.7093 49.081 78.2853 49.4064 77.928C49.7317 77.5653 50.129 77.2827 50.5984 77.08C51.0677 76.872 51.5957 76.768 52.1824 76.768C52.6677 76.768 53.1157 76.8507 53.5264 77.016C53.9424 77.176 54.2997 77.4107 54.5984 77.72C54.9024 78.024 55.1397 78.4027 55.3104 78.856C55.481 79.304 55.5664 79.816 55.5664 80.392C55.5664 80.616 55.5424 80.7653 55.4944 80.84C55.4464 80.9147 55.3557 80.952 55.2224 80.952H49.8064C49.8224 81.464 49.8917 81.9093 50.0144 82.288C50.1424 82.6667 50.3184 82.984 50.5424 83.24C50.7664 83.4907 51.033 83.68 51.3424 83.808C51.6517 83.9307 51.9984 83.992 52.3824 83.992C52.7397 83.992 53.0464 83.952 53.3024 83.872C53.5637 83.7867 53.7877 83.696 53.9744 83.6C54.161 83.504 54.3157 83.416 54.4384 83.336C54.5664 83.2507 54.6757 83.208 54.7664 83.208C54.8837 83.208 54.9744 83.2533 55.0384 83.344L55.4384 83.864ZM62.9555 78.336C62.9128 78.3947 62.8702 78.44 62.8275 78.472C62.7848 78.504 62.7262 78.52 62.6515 78.52C62.5715 78.52 62.4835 78.488 62.3875 78.424C62.2915 78.3547 62.1715 78.28 62.0275 78.2C61.8888 78.12 61.7155 78.048 61.5075 77.984C61.3048 77.9147 61.0542 77.88 60.7555 77.88C60.3555 77.88 60.0035 77.952 59.6995 78.096C59.3955 78.2347 59.1395 78.4373 58.9315 78.704C58.7288 78.9707 58.5742 79.2933 58.4675 79.672C58.3662 80.0507 58.3155 80.4747 58.3155 80.944C58.3155 81.4347 58.3715 81.872 58.4835 82.256C58.5955 82.6347 58.7528 82.9547 58.9555 83.216C59.1635 83.472 59.4115 83.6693 59.6995 83.808C59.9928 83.9413 60.3208 84.008 60.6835 84.008C61.0302 84.008 61.3155 83.968 61.5395 83.888C61.7635 83.8027 61.9475 83.7093 62.0915 83.608C62.2408 83.5067 62.3635 83.416 62.4595 83.336C62.5608 83.2507 62.6595 83.208 62.7555 83.208C62.8728 83.208 62.9635 83.2533 63.0275 83.344L63.4275 83.864C63.2515 84.0827 63.0515 84.2693 62.8275 84.424C62.6035 84.5787 62.3608 84.7093 62.0995 84.816C61.8435 84.9173 61.5742 84.992 61.2915 85.04C61.0088 85.088 60.7208 85.112 60.4275 85.112C59.9208 85.112 59.4488 85.0187 59.0115 84.832C58.5795 84.6453 58.2035 84.376 57.8835 84.024C57.5635 83.6667 57.3128 83.2293 57.1315 82.712C56.9502 82.1947 56.8595 81.6053 56.8595 80.944C56.8595 80.3413 56.9422 79.784 57.1075 79.272C57.2782 78.76 57.5235 78.32 57.8435 77.952C58.1688 77.5787 58.5662 77.288 59.0355 77.08C59.5102 76.872 60.0542 76.768 60.6675 76.768C61.2382 76.768 61.7395 76.8613 62.1715 77.048C62.6088 77.2293 62.9955 77.488 63.3315 77.824L62.9555 78.336ZM72.4761 85H71.0521V78.088H66.8761V82.952C66.8761 83.2933 66.9588 83.5467 67.1241 83.712C67.2895 83.8773 67.5028 83.96 67.7641 83.96C67.9135 83.96 68.0415 83.9413 68.1481 83.904C68.2601 83.8613 68.3561 83.816 68.4361 83.768C68.5161 83.72 68.5828 83.6773 68.6361 83.64C68.6948 83.5973 68.7455 83.576 68.7881 83.576C68.8628 83.576 68.9295 83.6213 68.9881 83.712L69.4041 84.392C69.1588 84.6213 68.8628 84.8027 68.5161 84.936C68.1695 85.064 67.8121 85.128 67.4441 85.128C66.8041 85.128 66.3108 84.9493 65.9641 84.592C65.6228 84.2347 65.4521 83.72 65.4521 83.048V78.088H64.4761C64.3908 78.088 64.3188 78.064 64.2601 78.016C64.2015 77.9627 64.1721 77.8827 64.1721 77.776V77.208L65.5001 77.032L65.8281 74.536C65.8441 74.456 65.8788 74.392 65.9321 74.344C65.9908 74.2907 66.0655 74.264 66.1561 74.264H66.8761V77.056H72.4761V85ZM72.8281 74.296C72.8281 74.4347 72.7988 74.5653 72.7401 74.688C72.6868 74.8053 72.6121 74.9093 72.5161 75C72.4255 75.0907 72.3188 75.1627 72.1961 75.216C72.0735 75.2693 71.9428 75.296 71.8041 75.296C71.6655 75.296 71.5348 75.2693 71.4121 75.216C71.2948 75.1627 71.1908 75.0907 71.1001 75C71.0095 74.9093 70.9375 74.8053 70.8841 74.688C70.8308 74.5653 70.8041 74.4347 70.8041 74.296C70.8041 74.1573 70.8308 74.0267 70.8841 73.904C70.9375 73.776 71.0095 73.6667 71.1001 73.576C71.1908 73.48 71.2948 73.4053 71.4121 73.352C71.5348 73.2987 71.6655 73.272 71.8041 73.272C71.9428 73.272 72.0735 73.2987 72.1961 73.352C72.3188 73.4053 72.4255 73.48 72.5161 73.576C72.6121 73.6667 72.6868 73.776 72.7401 73.904C72.7988 74.0267 72.8281 74.1573 72.8281 74.296ZM78.2315 76.768C78.8235 76.768 79.3568 76.8667 79.8315 77.064C80.3062 77.2613 80.7115 77.5413 81.0475 77.904C81.3835 78.2667 81.6395 78.7067 81.8155 79.224C81.9968 79.736 82.0875 80.3093 82.0875 80.944C82.0875 81.584 81.9968 82.16 81.8155 82.672C81.6395 83.184 81.3835 83.6213 81.0475 83.984C80.7115 84.3467 80.3062 84.6267 79.8315 84.824C79.3568 85.016 78.8235 85.112 78.2315 85.112C77.6342 85.112 77.0955 85.016 76.6155 84.824C76.1408 84.6267 75.7355 84.3467 75.3995 83.984C75.0635 83.6213 74.8048 83.184 74.6235 82.672C74.4475 82.16 74.3595 81.584 74.3595 80.944C74.3595 80.3093 74.4475 79.736 74.6235 79.224C74.8048 78.7067 75.0635 78.2667 75.3995 77.904C75.7355 77.5413 76.1408 77.2613 76.6155 77.064C77.0955 76.8667 77.6342 76.768 78.2315 76.768ZM78.2315 84C79.0315 84 79.6288 83.7333 80.0235 83.2C80.4182 82.6613 80.6155 81.912 80.6155 80.952C80.6155 79.9867 80.4182 79.2347 80.0235 78.696C79.6288 78.1573 79.0315 77.888 78.2315 77.888C77.8262 77.888 77.4715 77.9573 77.1675 78.096C76.8688 78.2347 76.6182 78.4347 76.4155 78.696C76.2182 78.9573 76.0688 79.28 75.9675 79.664C75.8715 80.0427 75.8235 80.472 75.8235 80.952C75.8235 81.912 76.0208 82.6613 76.4155 83.2C76.8155 83.7333 77.4208 84 78.2315 84ZM85.2376 78.072C85.4136 77.8747 85.6003 77.696 85.7976 77.536C85.995 77.376 86.203 77.24 86.4216 77.128C86.6456 77.0107 86.8803 76.9227 87.1256 76.864C87.3763 76.8 87.6456 76.768 87.9336 76.768C88.3763 76.768 88.7656 76.8427 89.1016 76.992C89.443 77.136 89.7256 77.344 89.9496 77.616C90.179 77.8827 90.3523 78.2053 90.4696 78.584C90.587 78.9627 90.6456 79.3813 90.6456 79.84V85H89.2136V79.84C89.2136 79.2267 89.0723 78.752 88.7896 78.416C88.5123 78.0747 88.0883 77.904 87.5176 77.904C87.0963 77.904 86.7016 78.0053 86.3336 78.208C85.971 78.4107 85.635 78.6853 85.3256 79.032V85H83.8936V76.896H84.7496C84.9523 76.896 85.0776 76.9947 85.1256 77.192L85.2376 78.072Z" fill="white"/>
<path d="M26.667 18.3333C29.4337 18.3333 31.6503 16.0999 31.6503 13.3333C31.6503 10.5666 29.4337 8.33325 26.667 8.33325C23.9003 8.33325 21.667 10.5666 21.667 13.3333C21.667 16.0999 23.9003 18.3333 26.667 18.3333ZM13.3337 18.3333C16.1003 18.3333 18.317 16.0999 18.317 13.3333C18.317 10.5666 16.1003 8.33325 13.3337 8.33325C10.567 8.33325 8.33366 10.5666 8.33366 13.3333C8.33366 16.0999 10.567 18.3333 13.3337 18.3333ZM13.3337 21.6666C9.45033 21.6666 1.66699 23.6166 1.66699 27.4999V31.6666H25.0003V27.4999C25.0003 23.6166 17.217 21.6666 13.3337 21.6666ZM26.667 21.6666C26.1837 21.6666 25.6337 21.6999 25.0503 21.7499C26.9837 23.1499 28.3337 25.0333 28.3337 27.4999V31.6666H38.3337V27.4999C38.3337 23.6166 30.5503 21.6666 26.667 21.6666Z" fill="white"/>
</svg>
